<svg xmlns="http://www.w3.org/2000/svg" id="Layer_2" data-name="Layer 2" viewBox="0 0 593.14 115.67"><defs><style>      .cls-1, .cls-2 {        fill: #f8c134;      }      .cls-1, .cls-2, .cls-3, .cls-4, .cls-5, .cls-6, .cls-7 {        stroke-width: 0px;      }      .cls-2 {        opacity: .99;      }      .cls-3 {        fill: #136c6c;      }      .cls-4 {        fill: #1a458a;      }      .cls-5 {        fill: #fff;      }      .cls-6 {        fill: #f5f8c7;      }      .cls-7 {        fill: #a4802d;      }    </style></defs><g id="Layer_1-2" data-name="Layer 1"><g><g><polygon class="cls-3" points="573.11 46.35 553.92 35.52 553.94 13.88 573.15 3.08 592.34 13.92 592.32 35.55 573.11 46.35"/><path class="cls-6" d="M573.34,23.29v-9.07c0-.31.13-.59.39-.83.26-.24.59-.36.98-.36s.73.12.99.36c.26.24.39.51.39.83v20.45c0,.2-.02.38-.07.53-.05.15-.15.27-.32.36-.19.11-.51.17-.96.17h-3.42c-.59,0-.99-.1-1.2-.3-.12-.09-.19-.2-.22-.33-.02-.13-.03-.29-.03-.47v-8.1c0-.3.01-.48.03-.55.05-.17.16-.32.35-.47.17-.14.4-.25.71-.33.87-.2,1.42-.36,1.63-.46.49-.26.74-.73.74-1.41Z"/><polygon class="cls-3" points="553.21 79.42 534.03 68.59 534.05 46.95 553.26 36.15 572.44 46.99 572.42 68.62 553.21 79.42"/><polygon class="cls-3" points="576.73 46.95 593.14 36.15 573.93 46.95 573.91 68.59 593.1 79.42 576.71 68.59 576.73 46.95"/><path class="cls-6" d="M546.02,46.79c.14-.07.39-.13.74-.19.33-.06.62-.09.88-.09h12.33c.4,0,.72,0,.96.03.21.04.4.13.57.28.16.17.26.32.31.47.03.17.04.39.04.66v4.22c0,.39-.01.67-.04.85-.05.2-.18.38-.39.53-.21.15-.45.24-.74.28-.28.04-.48.05-.59.05h-2.4c-.4,0-.64,0-.74-.03-.19-.04-.39-.13-.59-.28-.21-.13-.37-.3-.46-.5-.11-.18-.17-.39-.17-.63v-2.29c0-.2-.03-.39-.1-.55-.1-.17-.29-.33-.57-.5-.35-.22-.87-.33-1.56-.33h-3.09c-.56,0-1.03.1-1.41.3-.57.31-.86.77-.86,1.35v14.75c0,.22.01.48.03.77,0,.3.13.55.39.77.43.37,1.04.55,1.84.55h5.98c.49,0,.87-.03,1.13-.09.23-.04.49-.15.77-.36.47-.35.71-.8.71-1.35v-1.99c0-.48.11-.85.32-1.12.18-.26.57-.39,1.16-.39.45,0,.79.14,1.02.42.21.29.31.64.31,1.04v4.22c0,.39-.01.64-.03.77-.05.13-.2.29-.46.49-.4.31-.94.47-1.62.47h-12.86c-.59-.05-.98-.17-1.17-.36-.21-.2-.34-.4-.39-.6-.07-.18-.11-.42-.11-.72v-19.52c0-.64.29-1.11.86-1.41Z"/><polygon class="cls-3" points="573.07 112.59 553.89 101.75 553.91 80.12 573.12 69.32 592.3 80.15 592.28 101.79 573.07 112.59"/><path class="cls-6" d="M563.35,81.39c0-.35.19-.64.57-.86.35-.2.77-.3,1.27-.3h16.1c.42,0,.8.1,1.13.3.33.2.5.46.5.77s-.16.59-.47.83c-.31.24-.66.36-1.06.36h-3.21c-.36,0-.58.01-.67.03-.17.04-.37.13-.6.28-.35.24-.53.6-.53,1.07v17.97c0,.31-.05.57-.15.77-.11.22-.29.38-.52.47-.26.09-.61.14-1.06.14h-2.64c-.4,0-.68-.02-.84-.06-.19-.02-.37-.11-.53-.28-.19-.16-.29-.33-.32-.52-.05-.18-.07-.37-.07-.55v-17.72c0-.53-.16-.94-.49-1.21-.19-.15-.43-.26-.71-.33-.28-.06-.61-.09-.99-.09h-2.93c-.47,0-.88-.1-1.23-.3-.36-.18-.53-.44-.53-.77Z"/></g><g><g><path class="cls-4" d="M160.13,37.96c-.02-.09-.05-.3-.11-.62s-.12-.72-.2-1.21c-.08-.49-.17-1.05-.27-1.67-.1-.63-.21-1.3-.32-2.02-.11-.72-.23-1.47-.34-2.26-.11-.79-.22-1.58-.33-2.37-.1-.79-.2-1.58-.3-2.36s-.17-1.53-.23-2.24c-.04-.25-.07-.53-.09-.84s-.04-.63-.05-.94c-.01-.31-.02-.62-.03-.91,0-.29-.01-.54-.01-.74-.09.23-.17.49-.24.81s-.16.64-.24.98c-.08.34-.16.68-.25,1.02s-.17.64-.27.91c-.27.72-.56,1.48-.85,2.27-.3.79-.6,1.6-.92,2.41-.31.81-.62,1.62-.93,2.41-.31.79-.6,1.55-.88,2.28-.28.72-.54,1.4-.78,2.02-.24.62-.45,1.16-.63,1.61-.18.45-.32.81-.42,1.07-.1.26-.15.39-.15.4h-3.48c-.24-.6-.5-1.26-.78-1.97s-.58-1.46-.89-2.25c-.31-.79-.64-1.61-.97-2.45-.33-.84-.66-1.7-.99-2.58s-.66-1.76-.98-2.64c-.32-.88-.63-1.76-.92-2.63-.09-.27-.18-.57-.27-.91-.09-.33-.17-.67-.25-1.01-.08-.34-.16-.66-.24-.98-.08-.31-.16-.59-.24-.83-.02.2-.03.45-.04.74s-.03.61-.04.94c-.02.33-.04.66-.06.99-.03.33-.06.63-.09.9-.1.95-.22,1.94-.36,3s-.28,2.1-.43,3.14c-.15,1.04-.29,2.05-.44,3.02-.14.97-.28,1.84-.4,2.61-.12.77-.22,1.41-.31,1.92s-.14.84-.16.98h-4.1l4.01-25.94h3.23c.6,1.65,1.18,3.22,1.74,4.7.56,1.48,1.09,2.9,1.6,4.25.27.75.54,1.5.81,2.25.27.75.53,1.47.79,2.16.26.69.5,1.34.72,1.94.23.6.43,1.14.6,1.6.18.46.33.85.45,1.15s.2.49.24.56c.03.11.07.24.11.38s.09.31.13.48c.05.17.09.34.14.51s.09.33.14.49c.03-.15.07-.32.11-.49.04-.17.08-.34.13-.51s.08-.33.12-.48c.04-.15.08-.27.12-.38.02-.08.08-.27.18-.56s.24-.68.41-1.15c.17-.46.37-1,.59-1.6.22-.6.47-1.25.73-1.94.26-.69.54-1.41.83-2.16s.58-1.5.87-2.25c.5-1.35,1.03-2.76,1.58-4.25.55-1.48,1.13-3.05,1.76-4.7h3.29l4,25.94h-4.15Z"/><path class="cls-4" d="M185.12,38.01c-.19.13-.43.24-.7.31-.27.08-.56.12-.88.12-.31,0-.63-.04-.96-.13-.32-.09-.64-.23-.93-.43s-.57-.46-.81-.8c-.24-.33-.44-.74-.58-1.22-.79.75-1.65,1.33-2.59,1.74-.94.41-1.88.66-2.82.76-.94.09-1.85.03-2.73-.17-.88-.21-1.65-.55-2.33-1.03-.68-.48-1.22-1.09-1.63-1.82s-.61-1.59-.61-2.56.15-1.82.44-2.57c.29-.75.7-1.41,1.24-1.98s1.18-1.05,1.93-1.45c.75-.4,1.58-.72,2.5-.96.91-.25,1.9-.43,2.96-.54,1.06-.11,2.16-.17,3.32-.17-.06-.13-.11-.31-.13-.52-.03-.22-.05-.43-.06-.65-.01-.21-.02-.4-.01-.57,0-.17,0-.27,0-.31,0-.33-.12-.65-.35-.96-.24-.31-.58-.58-1.02-.81-.44-.23-.98-.41-1.61-.53s-1.34-.16-2.12-.12c-.78.05-1.63.19-2.55.43s-1.89.6-2.91,1.09l-.86-2.81c.69-.38,1.44-.71,2.24-1,.8-.29,1.62-.51,2.46-.67.84-.16,1.68-.26,2.53-.3.84-.04,1.66,0,2.43.11.78.11,1.5.31,2.18.58.67.28,1.26.64,1.76,1.1.5.46.88,1.01,1.17,1.67.28.65.42,1.42.42,2.28v10.76c0,1.2.71,1.8,2.14,1.8l-.52,2.34ZM179.99,27.35c-1.49.14-2.77.34-3.85.62-1.08.27-1.97.61-2.67,1.02-.7.41-1.21.9-1.55,1.45-.34.56-.5,1.19-.5,1.91,0,.51.11.95.33,1.32.22.37.53.67.92.91.39.23.85.4,1.38.49.53.09,1.1.11,1.72.06.62-.05,1.26-.19,1.94-.4.68-.21,1.36-.5,2.04-.86v-5.52c0-.12.02-.27.06-.44.04-.17.1-.35.18-.56Z"/><path class="cls-4" d="M203.02,37.96v-12.9c0-.93-.16-1.71-.48-2.35-.32-.64-.75-1.13-1.27-1.48-.53-.35-1.13-.55-1.8-.62-.67-.06-1.37.02-2.08.25-.71.23-1.41.6-2.1,1.12-.69.52-1.31,1.18-1.87,1.99v13.99h-3.77V8.59h3.77v10.14c0,.22-.01.52-.03.92-.02.4-.09.93-.2,1.6l.14.05c.55-.83,1.17-1.52,1.85-2.08.68-.56,1.39-.99,2.12-1.3.73-.31,1.47-.5,2.23-.58s1.48-.04,2.18.1,1.36.38,1.97.73c.61.35,1.15.79,1.6,1.32.46.53.82,1.15,1.08,1.85.26.7.4,1.48.4,2.34v14.28h-3.72Z"/><path class="cls-4" d="M214.31,13.21c-.54,0-.99-.12-1.35-.35-.36-.24-.63-.53-.81-.88-.18-.35-.27-.73-.27-1.15s.09-.79.27-1.14c.18-.35.45-.65.81-.88.36-.24.81-.35,1.35-.35s.98.12,1.33.35c.35.24.62.53.8.88.18.35.27.73.27,1.14s-.09.79-.27,1.15c-.18.35-.44.65-.8.88-.35.24-.8.35-1.33.35ZM212.45,37.96v-20.19h3.77v20.19h-3.77Z"/><path class="cls-4" d="M241.07,38.01c-.19.12-.41.22-.67.3-.26.07-.55.11-.85.12s-.62-.03-.95-.1c-.33-.07-.64-.2-.93-.38-.29-.18-.56-.42-.81-.73-.24-.3-.44-.67-.59-1.12-.09.18-.29.4-.6.66-.31.26-.68.52-1.12.76-.44.24-.93.45-1.48.62-.54.17-1.1.26-1.66.26-1.36.04-2.57-.07-3.62-.33-1.05-.26-1.96-.63-2.73-1.12s-1.42-1.07-1.94-1.75c-.52-.68-.94-1.43-1.26-2.23s-.54-1.65-.68-2.54c-.14-.89-.2-1.78-.2-2.69,0-1.6.26-3.05.79-4.33s1.25-2.37,2.16-3.27c.91-.9,1.99-1.58,3.23-2.06,1.24-.48,2.57-.72,4-.72.46,0,.89.02,1.27.06s.76.11,1.12.21c.36.1.73.23,1.1.4s.78.37,1.22.62c-.06-.22-.11-.37-.14-.45-.03-.08-.05-.16-.07-.23-.02-.07-.03-.16-.03-.26,0-.1,0-.28,0-.53v-8.57h3.81v25.28c0,1.2.71,1.8,2.14,1.8l-.52,2.34ZM235.93,32.97c-.06-.25-.11-.44-.14-.58-.03-.14-.05-.25-.07-.34-.02-.09-.03-.17-.03-.25s0-.18,0-.31v-7.86c0-.13,0-.25.01-.35,0-.1.02-.21.04-.32.02-.11.04-.23.08-.37.04-.13.08-.29.12-.49-.33-.29-.69-.54-1.09-.73s-.8-.34-1.21-.45c-.41-.11-.8-.19-1.18-.23-.38-.04-.71-.06-1-.06-.86,0-1.63.14-2.32.41s-1.28.64-1.8,1.1c-.51.46-.94,1-1.28,1.62-.34.62-.59,1.28-.76,1.97-.17.69-.25,1.41-.25,2.14s.08,1.45.26,2.14.42,1.35.75,1.97c.33.62.75,1.16,1.24,1.62s1.07.83,1.73,1.1,1.4.41,2.22.41c.51,0,1-.06,1.47-.17.47-.12.9-.27,1.3-.47.4-.2.76-.42,1.08-.68.32-.26.59-.53.82-.81Z"/><path class="cls-4" d="M254.59,38.39c-1.42,0-2.69-.2-3.8-.59-1.12-.39-2.09-.92-2.92-1.6-.83-.67-1.51-1.46-2.05-2.36-.54-.9-.94-1.85-1.2-2.87-.26-1.01-.38-2.05-.37-3.11.02-1.07.17-2.1.46-3.11.29-1.01.71-1.97,1.27-2.86.55-.9,1.24-1.69,2.06-2.36.82-.67,1.77-1.21,2.84-1.6,1.08-.39,2.28-.59,3.6-.59s2.59.2,3.68.59,2.05.92,2.88,1.6c.83.67,1.52,1.46,2.07,2.36.56.9.98,1.85,1.26,2.86.28,1.01.43,2.05.44,3.11,0,1.07-.12,2.1-.38,3.11-.26,1.01-.67,1.97-1.21,2.87-.54.9-1.22,1.69-2.04,2.36-.82.67-1.78,1.21-2.88,1.6-1.1.39-2.34.59-3.72.59ZM254.91,35.35c.86,0,1.62-.14,2.29-.42.67-.28,1.24-.66,1.72-1.13.48-.48.87-1.03,1.17-1.67s.51-1.32.64-2.03.17-1.45.12-2.21-.17-1.5-.38-2.21c-.21-.72-.5-1.39-.87-2.03-.37-.64-.81-1.2-1.34-1.67-.52-.48-1.12-.85-1.79-1.13s-1.41-.42-2.23-.42c-.88,0-1.65.14-2.33.42s-1.26.66-1.75,1.13c-.49.48-.9,1.03-1.21,1.67-.31.64-.54,1.32-.67,2.03-.13.72-.18,1.46-.13,2.21.04.76.17,1.5.38,2.21s.5,1.39.88,2.03.83,1.2,1.37,1.67c.53.48,1.15.85,1.84,1.13.69.28,1.46.42,2.3.42Z"/><path class="cls-4" d="M269.57,37.96V8.59h3.77v29.37h-3.77Z"/><path class="cls-4" d="M306.36,28.2c0,.91-.11,1.8-.32,2.66-.21.86-.53,1.67-.94,2.43-.42.76-.92,1.46-1.52,2.09-.6.63-1.28,1.17-2.04,1.63-.76.45-1.61.81-2.53,1.06s-1.92.38-2.98.38-1.99-.12-2.9-.36c-.91-.24-1.75-.58-2.52-1.02-.77-.44-1.46-.97-2.07-1.6s-1.14-1.32-1.56-2.07c-.43-.76-.75-1.58-.98-2.46-.23-.88-.34-1.81-.34-2.77V12.02h3.91v16.52c0,.57.08,1.12.24,1.65.16.53.38,1.02.67,1.48.29.46.63.87,1.03,1.25.4.38.84.7,1.32.96.48.27.99.47,1.54.62s1.1.22,1.68.22,1.14-.07,1.68-.22c.54-.15,1.05-.35,1.54-.62.48-.27.92-.59,1.32-.96.4-.38.74-.79,1.03-1.25.29-.46.51-.95.67-1.48.16-.53.24-1.08.24-1.65V12.02h3.86v16.18Z"/><path class="cls-4" d="M325.73,37.96v-13.42c0-.72-.14-1.36-.43-1.92-.28-.56-.66-1.01-1.14-1.35-.48-.34-1.04-.56-1.68-.66s-1.31-.05-2.02.14c-.71.19-1.43.54-2.17,1.05-.74.51-1.44,1.2-2.13,2.07v14.09h-3.77v-15.52c0-.42-.04-.77-.13-1.05-.09-.28-.2-.51-.34-.68-.14-.17-.29-.3-.46-.39-.17-.08-.34-.14-.51-.17-.17-.03-.33-.05-.48-.05h-.35l.52-2.38c.75-.29,1.46-.42,2.13-.39.67.03,1.25.18,1.76.45.5.27.9.66,1.2,1.14s.44,1.05.44,1.7l.14.09c.46-.65,1-1.21,1.62-1.68s1.29-.84,1.99-1.11c.71-.27,1.43-.45,2.17-.52.74-.08,1.47-.05,2.19.07s1.39.35,2.02.67,1.18.75,1.66,1.28c.47.53.85,1.17,1.13,1.91s.42,1.59.42,2.54v14.09h-3.76Z"/><path class="cls-4" d="M337.07,13.21c-.54,0-.99-.12-1.35-.35-.36-.24-.63-.53-.81-.88-.18-.35-.27-.73-.27-1.15s.09-.79.27-1.14c.18-.35.45-.65.81-.88.36-.24.81-.35,1.35-.35s.98.12,1.33.35c.35.24.62.53.8.88.18.35.27.73.27,1.14s-.09.79-.27,1.15c-.18.35-.44.65-.8.88-.35.24-.8.35-1.33.35ZM335.21,37.96v-20.19h3.77v20.19h-3.77Z"/><path class="cls-4" d="M354.31,37.96h-3.66l-7.81-19.71,3.62-.91,5.24,13.24c.15.42.27.78.35,1.1.08.31.14.6.19.86s.09.5.12.73c.03.22.08.46.14.7.06-.24.11-.47.14-.7.03-.23.07-.47.12-.73.05-.26.11-.55.2-.86s.22-.68.4-1.1l5.33-13.24,3.62.91-8,19.71Z"/><path class="cls-4" d="M381.92,28.06h-13.23c0,.97.13,1.83.39,2.6s.61,1.43,1.05,1.99c.44.57.95,1.03,1.54,1.39.59.36,1.21.63,1.88.8.66.17,1.34.24,2.03.22s1.37-.14,2.02-.36c.66-.22,1.27-.53,1.85-.94s1.08-.92,1.51-1.52l1.81,2.53c-.55.76-1.23,1.4-2.03,1.94-.81.53-1.68.94-2.63,1.23-.95.29-1.93.45-2.96.48-1.03.03-2.03-.07-3.02-.31-.99-.24-1.93-.63-2.81-1.16-.89-.53-1.67-1.22-2.34-2.06-.67-.84-1.21-1.84-1.6-2.99-.4-1.15-.59-2.48-.59-3.99,0-.88.09-1.76.26-2.62.17-.86.44-1.69.79-2.47.35-.78.8-1.51,1.34-2.18.54-.67,1.18-1.25,1.91-1.74s1.57-.87,2.5-1.15c.93-.28,1.97-.42,3.1-.42,1.02,0,1.95.11,2.78.34s1.57.54,2.21.94c.64.4,1.2.87,1.67,1.41.47.54.85,1.13,1.16,1.77s.53,1.3.67,2.01c.15.7.22,1.41.22,2.12l-1.48,2.14ZM379.87,25.4c-.09-.64-.24-1.2-.47-1.68-.23-.48-.5-.9-.81-1.26-.31-.35-.65-.64-1.01-.88-.36-.23-.73-.42-1.09-.56-.36-.14-.71-.24-1.04-.3-.33-.06-.62-.09-.87-.09-.76,0-1.47.14-2.12.42-.66.28-1.23.64-1.72,1.09s-.88.96-1.19,1.53c-.3.57-.48,1.15-.55,1.73h10.86Z"/><path class="cls-4" d="M399.25,21.4c-.74-.34-1.42-.52-2.04-.53s-1.18.08-1.69.28c-.51.2-.97.48-1.37.85s-.77.75-1.09,1.16c-.32.41-.61.81-.85,1.2s-.46.73-.66,1c.03.15.06.29.09.4.03.11.05.22.06.32s.02.2.03.3.01.22.01.35v11.24h-3.76v-15.14c0-.4-.04-.76-.13-1.09-.09-.33-.22-.61-.39-.85-.17-.24-.4-.43-.66-.56-.27-.14-.59-.2-.96-.2l.52-2.38c.19-.12.45-.23.78-.31.33-.08.69-.12,1.08-.1.39.02.78.1,1.17.24s.75.39,1.08.73c.32.34.58.78.78,1.34s.3,1.26.3,2.1l.14.05c.12-.18.26-.41.42-.68.17-.27.36-.57.58-.88.22-.31.47-.63.76-.95s.6-.62.94-.88.72-.49,1.13-.68c.41-.19.85-.3,1.33-.34s.99,0,1.54.14c.55.13,1.14.38,1.77.76l-.91,3.15Z"/><path class="cls-4" d="M416.92,32.44c-.06,1.05-.31,1.96-.75,2.74-.44.78-1.02,1.42-1.74,1.92-.72.5-1.56.86-2.5,1.09s-1.97.32-3.05.26c-1.08-.05-2.21-.25-3.38-.58-1.17-.33-2.32-.81-3.47-1.43l1.14-3c.68.43,1.39.77,2.12,1.03s1.45.45,2.16.55c.71.1,1.39.12,2.03.06.65-.06,1.22-.19,1.73-.41.5-.21.92-.5,1.24-.87.32-.36.51-.81.58-1.32.04-.44-.04-.83-.22-1.17-.19-.34-.45-.64-.8-.9-.35-.26-.75-.5-1.22-.72-.47-.22-.97-.43-1.49-.64-.53-.21-1.07-.42-1.62-.64-.55-.22-1.09-.46-1.6-.73-.51-.27-.99-.57-1.43-.91-.44-.34-.81-.73-1.1-1.17-.3-.45-.51-.95-.64-1.53-.13-.57-.13-1.23-.02-1.98.1-.78.34-1.48.73-2.1.38-.62.88-1.13,1.48-1.55s1.31-.71,2.12-.91c.81-.19,1.7-.26,2.66-.2.97.06,1.99.26,3.09.6,1.09.34,2.23.84,3.4,1.49l-.77,2.62c-.6-.28-1.23-.53-1.88-.76-.65-.22-1.29-.41-1.92-.54s-1.24-.22-1.81-.24c-.58-.02-1.09.03-1.54.16-.45.13-.82.35-1.11.66-.29.31-.47.72-.53,1.24-.07.52.03.96.29,1.31.26.35.63.66,1.11.94.48.27,1.03.52,1.66.74.63.22,1.28.46,1.94.71.66.26,1.31.55,1.95.87.64.33,1.2.72,1.69,1.2s.87,1.04,1.15,1.7c.28.66.4,1.46.35,2.39Z"/><path class="cls-4" d="M424.59,13.21c-.54,0-.99-.12-1.35-.35-.36-.24-.63-.53-.81-.88-.18-.35-.27-.73-.27-1.15s.09-.79.27-1.14c.18-.35.45-.65.81-.88.36-.24.81-.35,1.35-.35s.98.12,1.33.35c.35.24.62.53.8.88.18.35.27.73.27,1.14s-.09.79-.27,1.15c-.18.35-.44.65-.8.88-.35.24-.8.35-1.33.35ZM422.73,37.96v-20.19h3.77v20.19h-3.77Z"/><path class="cls-4" d="M442.35,37.53c-1.22.45-2.31.74-3.27.87-.95.13-1.79.13-2.51.01s-1.33-.35-1.83-.7c-.5-.34-.91-.77-1.22-1.27-.31-.5-.54-1.06-.68-1.69-.14-.63-.21-1.29-.21-1.98v-10.9c0-.09,0-.21.02-.34.01-.14.03-.27.06-.41.03-.14.07-.27.11-.4.04-.13.09-.23.15-.32-.09.04-.19.07-.31.08-.12.02-.24.03-.37.04-.13.01-.25.02-.38.02h-1.85v-2.09c.65-.02,1.2-.09,1.63-.2.44-.11.8-.27,1.09-.48.29-.21.51-.47.68-.79.17-.32.3-.7.41-1.14s.21-.95.3-1.52c.09-.57.2-1.21.32-1.92h2.05l-.09,4.9s0,.1-.02.19c-.01.09-.03.18-.05.27s-.05.19-.08.27c-.03.09-.06.14-.09.17.07-.02.13-.04.19-.05.05,0,.12-.02.18-.05.17-.02.32-.04.44-.06.12-.02.22-.03.28-.03h4.05v2.52h-4.09c-.19,0-.36,0-.51,0s-.32-.03-.54-.1c.03.05.06.13.09.25s.05.25.06.4c.01.14.02.29.03.43,0,.14.01.26.01.35v10.32c0,.66.09,1.22.28,1.67.19.46.5.8.92,1.03.43.23.98.34,1.66.33.68-.01,1.52-.16,2.51-.45l.57,2.75Z"/><path class="cls-4" d="M453.31,40.06c-.57,1.39-1.21,2.59-1.91,3.58-.7.99-1.49,1.77-2.37,2.35-.88.57-1.86.93-2.93,1.06-1.07.14-2.27.04-3.6-.27l.77-3.38c.64.22,1.21.33,1.72.34.51,0,.97-.06,1.39-.2.41-.14.78-.35,1.1-.61.32-.26.61-.56.87-.9.26-.33.49-.69.69-1.06s.38-.74.55-1.09c.17-.36.34-.74.5-1.16.17-.41.38-.92.65-1.52l-7.38-18.95,3.62-.91,4.77,12.62c.03.09.08.23.15.42.07.2.15.43.23.7.08.27.17.56.26.87s.18.63.27.96h.14c.08-.33.17-.64.25-.94.08-.3.16-.58.23-.84.07-.26.14-.49.21-.7.07-.21.12-.38.17-.51l5-12.58,3.52.95-8.86,21.76Z"/></g><g><path class="cls-4" d="M138.33,58.12h-.35c.02.08.03.15.04.2s.02.1.02.12v4.45s0,.1-.02.16c-.01.06-.02.13-.02.19.06-.02.12-.03.17-.03.05,0,.1,0,.15,0h5.59l.13,2.35h-5.71s-.1,0-.15,0c-.05,0-.12-.01-.2-.03.02.08.03.15.04.21s.02.11.02.14v7.48h-2.65v-17.58h9.36l.2,2.32h-6.62Z"/><path class="cls-4" d="M159.98,73.41c-.13.09-.29.16-.47.21s-.38.08-.59.08c-.21,0-.43-.03-.65-.09s-.43-.16-.63-.29c-.2-.13-.39-.31-.55-.54s-.3-.5-.39-.83c-.53.51-1.12.9-1.76,1.18-.64.28-1.27.45-1.91.51s-1.25.02-1.85-.12c-.59-.14-1.12-.37-1.58-.7-.46-.33-.83-.74-1.1-1.24s-.41-1.08-.41-1.73.1-1.23.3-1.74c.2-.51.48-.96.84-1.34.36-.39.8-.71,1.31-.98.51-.27,1.07-.49,1.69-.65.62-.17,1.29-.29,2-.37.72-.08,1.47-.11,2.25-.11-.04-.09-.07-.21-.09-.35-.02-.15-.03-.29-.04-.44,0-.14-.01-.27,0-.39,0-.11,0-.18,0-.21,0-.23-.08-.44-.24-.65-.16-.21-.39-.39-.69-.55-.3-.16-.66-.28-1.09-.36-.43-.08-.91-.11-1.44-.08-.53.03-1.11.13-1.73.29-.62.16-1.28.41-1.97.74l-.58-1.91c.47-.26.97-.48,1.52-.68s1.1-.35,1.67-.46c.57-.11,1.14-.18,1.71-.21.57-.03,1.12,0,1.65.07.53.08,1.02.21,1.48.39.46.19.85.43,1.19.74.34.31.6.69.79,1.13.19.44.29.96.29,1.55v7.29c0,.81.48,1.22,1.45,1.22l-.35,1.58ZM156.49,66.18c-1.01.09-1.88.23-2.61.42s-1.34.42-1.81.69c-.47.28-.82.61-1.05.98-.23.38-.34.81-.34,1.29,0,.35.08.65.23.9.15.25.36.46.62.61.27.16.58.27.94.33.36.06.75.08,1.17.04.42-.04.86-.13,1.31-.27.46-.14.92-.34,1.38-.58v-3.74c0-.08.01-.18.04-.3s.07-.24.12-.38Z"/><path class="cls-4" d="M173.46,71.82c-.5.47-1.04.85-1.63,1.13-.59.29-1.2.49-1.82.61-.63.12-1.25.15-1.89.09-.63-.05-1.24-.19-1.83-.42-.59-.22-1.13-.53-1.64-.91-.51-.38-.95-.85-1.33-1.39-.38-.54-.67-1.16-.89-1.86-.22-.7-.32-1.47-.32-2.32s.1-1.68.3-2.39c.2-.72.48-1.36.84-1.92.36-.56.78-1.05,1.26-1.45s1.01-.73,1.57-.98c.56-.25,1.16-.42,1.78-.51.62-.09,1.24-.1,1.87-.04.63.07,1.24.22,1.85.44s1.18.54,1.72.93l-1.2,1.77c-.5-.36-1.04-.62-1.59-.8-.56-.17-1.11-.25-1.65-.23-.54.02-1.06.14-1.55.36-.49.22-.93.54-1.3.96-.37.42-.67.95-.89,1.58-.22.63-.33,1.37-.33,2.21,0,.69.11,1.32.34,1.89.23.57.53,1.06.92,1.47s.84.74,1.36.98c.51.24,1.06.37,1.63.4s1.16-.06,1.76-.27c.6-.2,1.18-.54,1.74-1.02l.93,1.68Z"/><path class="cls-4" d="M188.88,73.41c-.51.19-.99.29-1.44.28s-.85-.11-1.19-.29c-.34-.18-.61-.44-.81-.78-.2-.34-.3-.73-.3-1.18l-.09-.06c-.32.45-.68.83-1.11,1.14-.42.32-.87.56-1.35.75s-.97.3-1.48.35-1,.04-1.48-.05c-.48-.08-.94-.23-1.37-.45-.43-.22-.81-.51-1.13-.86-.32-.36-.58-.78-.76-1.28-.19-.5-.28-1.06-.28-1.7v-9.59h2.54v9.1c0,.5.1.94.29,1.32.19.38.46.69.79.92.33.23.71.38,1.15.45.44.07.89.03,1.38-.1.48-.13.97-.37,1.47-.71.5-.34.98-.81,1.43-1.39v-9.59h2.55v10.52c0,.28.03.51.09.7.06.19.14.34.23.46.09.12.2.21.31.27s.23.11.34.13c.11.02.22.04.32.04.1,0,.17,0,.22,0l-.32,1.58Z"/><path class="cls-4" d="M191.85,73.37v-19.9h2.55v19.9h-2.55Z"/><path class="cls-4" d="M205.15,73.08c-.83.3-1.57.5-2.21.59-.65.09-1.21.09-1.7,0s-.9-.24-1.24-.47-.61-.52-.83-.86c-.21-.34-.37-.72-.46-1.15-.1-.43-.14-.87-.14-1.34v-7.39c0-.06,0-.14.01-.23s.02-.19.04-.28c.02-.09.05-.18.07-.27.03-.09.06-.16.1-.22-.06.03-.13.04-.21.06-.08.01-.16.02-.25.03-.09,0-.17.01-.26.01h-1.25v-1.42c.44-.02.81-.06,1.11-.14.3-.08.54-.19.74-.33s.35-.32.46-.54.21-.47.28-.77c.07-.3.14-.64.2-1.03.06-.39.13-.82.22-1.3h1.39l-.06,3.32s0,.07-.01.13c0,.06-.02.12-.03.18-.01.07-.03.13-.05.18s-.04.1-.06.12c.05-.02.09-.03.13-.03s.08-.02.13-.03c.12-.02.21-.03.3-.04.08-.01.15-.02.19-.02h2.74v1.71h-2.77c-.13,0-.25,0-.34,0-.1,0-.22-.02-.37-.07.02.03.04.09.06.17.02.08.03.17.04.27s.01.19.02.29c0,.1,0,.18,0,.24v6.99c0,.45.06.82.19,1.13.13.31.34.54.63.7s.66.23,1.13.22c.46,0,1.03-.11,1.7-.3l.39,1.87Z"/><path class="cls-4" d="M212.57,74.79c-.39.94-.82,1.75-1.3,2.43-.48.67-1.01,1.2-1.61,1.59-.6.39-1.26.63-1.99.72s-1.54.03-2.44-.18l.52-2.29c.43.15.82.22,1.17.23.35,0,.66-.04.94-.14.28-.1.53-.24.75-.41s.42-.38.59-.61.33-.46.46-.72.26-.5.37-.74.23-.5.34-.78c.11-.28.26-.62.44-1.03l-5-12.84,2.45-.61,3.23,8.55c.02.06.06.15.1.29.05.13.1.29.15.47s.11.38.18.59c.06.21.12.43.18.65h.09c.06-.22.11-.43.17-.64.06-.2.11-.39.16-.57.05-.18.1-.33.14-.48.05-.14.08-.26.11-.35l3.39-8.52,2.39.65-6,14.75Z"/><path class="cls-4" d="M231.56,73.66c-.96,0-1.82-.13-2.58-.4s-1.42-.63-1.98-1.08c-.56-.46-1.03-.99-1.39-1.6s-.64-1.26-.81-1.94-.26-1.39-.25-2.11c.01-.72.11-1.43.31-2.11.2-.69.48-1.33.86-1.94.37-.61.84-1.14,1.39-1.6.55-.46,1.2-.82,1.93-1.08.73-.27,1.54-.4,2.44-.4s1.76.13,2.5.4c.74.26,1.39.63,1.95,1.08s1.03.99,1.41,1.6c.38.61.66,1.26.85,1.94.19.69.29,1.39.3,2.11,0,.72-.08,1.43-.26,2.11s-.45,1.33-.82,1.94-.83,1.14-1.38,1.6c-.55.46-1.2.82-1.95,1.08-.75.26-1.59.4-2.52.4ZM231.78,71.6c.58,0,1.1-.09,1.55-.28.45-.19.84-.44,1.17-.77.32-.32.59-.7.79-1.13s.35-.89.43-1.38.11-.99.08-1.5-.12-1.01-.26-1.5c-.14-.49-.34-.94-.59-1.38-.25-.43-.55-.81-.91-1.13-.35-.32-.76-.58-1.21-.77-.45-.19-.96-.28-1.51-.28-.59,0-1.12.09-1.58.28-.46.19-.86.44-1.19.77-.33.32-.61.7-.82,1.13-.21.43-.36.89-.45,1.38s-.12.99-.09,1.5.11,1.01.26,1.5c.14.49.34.94.59,1.38s.56.81.93,1.13c.36.32.78.58,1.24.77.47.19.99.28,1.56.28Z"/><path class="cls-4" d="M247.66,55.37c-.58,0-1.08.09-1.48.28-.41.18-.74.43-1,.74-.26.31-.44.67-.56,1.08s-.18.84-.18,1.29v.39c0,.13-.01.24-.03.35s-.06.21-.1.29c.11-.05.23-.08.35-.09.12,0,.22-.01.3-.01h2.17v1.97h-2.17c-.08,0-.17,0-.27-.02s-.23-.04-.37-.07c.09.25.13.5.13.77v11.07h-2.55v-11.07c0-.12,0-.24.03-.37.02-.13.05-.27.1-.4-.25.06-.48.09-.68.09h-1.36v-1.97h1.36c.21,0,.44.03.68.1-.06-.12-.1-.23-.11-.35-.01-.12-.02-.24-.02-.37v-.35c0-.27.03-.57.09-.91.06-.34.16-.69.3-1.06.13-.36.31-.72.52-1.08.21-.36.47-.69.77-.98.25-.23.54-.43.85-.62.32-.19.66-.34,1.02-.46s.76-.19,1.17-.22c.41-.03.84,0,1.28.1l-.23,1.87Z"/><path class="cls-4" d="M254.12,73.37v-17.58h2.68v17.58h-2.68Z"/><path class="cls-4" d="M269.9,73.37v-9.1c0-.49-.1-.92-.29-1.3-.19-.38-.45-.68-.78-.91s-.7-.38-1.14-.44c-.43-.07-.89-.03-1.37.09-.48.13-.97.36-1.47.71-.5.34-.98.81-1.44,1.41v9.55h-2.55v-10.52c0-.28-.03-.52-.09-.71-.06-.19-.14-.34-.23-.46-.09-.12-.2-.21-.31-.26s-.23-.1-.35-.12c-.12-.02-.22-.03-.32-.03h-.24l.35-1.61c.51-.19.99-.28,1.44-.26.45.02.85.12,1.19.31.34.19.61.45.81.78.2.33.3.71.3,1.15l.09.06c.31-.44.68-.82,1.1-1.14s.87-.57,1.35-.75c.48-.18.97-.3,1.47-.35.5-.05,1-.04,1.48.05.48.08.94.23,1.37.45.43.22.8.51,1.12.87.32.36.58.79.76,1.29s.28,1.08.28,1.72v9.55h-2.55Z"/><path class="cls-4" d="M282.26,55.37c-.58,0-1.08.09-1.48.28-.41.18-.74.43-1,.74-.26.31-.45.67-.56,1.08s-.18.84-.18,1.29v.39c0,.13-.01.24-.03.35s-.06.21-.1.29c.11-.05.23-.08.35-.09.12,0,.22-.01.3-.01h2.17v1.97h-2.17c-.08,0-.17,0-.27-.02-.1-.02-.23-.04-.37-.07.09.25.13.5.13.77v11.07h-2.55v-11.07c0-.12,0-.24.03-.37.02-.13.05-.27.1-.4-.25.06-.48.09-.68.09h-1.36v-1.97h1.36c.21,0,.44.03.68.1-.06-.12-.1-.23-.11-.35-.01-.12-.02-.24-.02-.37v-.35c0-.27.03-.57.09-.91.06-.34.16-.69.3-1.06.13-.36.31-.72.52-1.08.21-.36.47-.69.77-.98.25-.23.54-.43.85-.62.32-.19.66-.34,1.02-.46s.76-.19,1.17-.22c.41-.03.84,0,1.28.1l-.23,1.87Z"/><path class="cls-4" d="M290.62,73.66c-.96,0-1.82-.13-2.58-.4s-1.42-.63-1.98-1.08c-.56-.46-1.03-.99-1.39-1.6s-.64-1.26-.81-1.94-.26-1.39-.25-2.11c.01-.72.11-1.43.31-2.11.2-.69.48-1.33.86-1.94.38-.61.84-1.14,1.39-1.6.55-.46,1.2-.82,1.93-1.08.73-.27,1.54-.4,2.44-.4s1.76.13,2.5.4c.74.26,1.39.63,1.95,1.08.56.46,1.03.99,1.41,1.6.38.61.66,1.26.86,1.94.19.69.29,1.39.29,2.11,0,.72-.08,1.43-.26,2.11s-.45,1.33-.82,1.94-.83,1.14-1.38,1.6c-.55.46-1.2.82-1.95,1.08s-1.59.4-2.52.4ZM290.84,71.6c.58,0,1.1-.09,1.55-.28.45-.19.84-.44,1.17-.77.33-.32.59-.7.79-1.13.2-.43.35-.89.43-1.38s.11-.99.08-1.5-.12-1.01-.26-1.5-.34-.94-.59-1.38c-.25-.43-.55-.81-.91-1.13-.35-.32-.76-.58-1.21-.77-.45-.19-.96-.28-1.51-.28-.59,0-1.12.09-1.58.28-.46.19-.86.44-1.19.77-.33.32-.61.7-.82,1.13-.21.43-.36.89-.45,1.38s-.12.99-.09,1.5.11,1.01.26,1.5c.14.49.34.94.6,1.38.26.43.56.81.93,1.13.36.32.78.58,1.24.77.47.19.99.28,1.56.28Z"/><path class="cls-4" d="M308.42,62.15c-.5-.23-.97-.35-1.39-.36s-.8.05-1.15.19-.65.33-.93.58c-.27.25-.52.51-.74.78s-.41.55-.58.82c-.16.27-.31.49-.44.68.02.11.04.2.06.27.02.08.03.15.04.22,0,.07.01.14.02.2,0,.07,0,.15,0,.24v7.62h-2.55v-10.26c0-.27-.03-.51-.09-.74-.06-.22-.15-.42-.26-.58-.12-.16-.27-.29-.45-.38s-.4-.14-.65-.14l.35-1.61c.13-.08.31-.16.53-.21.22-.06.47-.08.73-.07s.53.07.8.17c.27.1.51.26.73.49s.4.53.53.91c.14.38.21.85.21,1.43l.09.03c.08-.12.17-.27.29-.46s.24-.39.39-.6.32-.43.51-.65c.19-.22.4-.42.64-.6s.49-.33.77-.46c.28-.13.58-.2.9-.23s.67,0,1.04.09c.37.09.77.26,1.2.51l-.61,2.13Z"/><path class="cls-4" d="M328.2,73.37v-8.9c0-.54-.09-1-.27-1.4-.18-.4-.42-.72-.73-.95-.3-.24-.66-.39-1.06-.45-.4-.06-.82-.03-1.26.1-.44.13-.88.37-1.34.7-.45.34-.88.79-1.28,1.35v9.55h-2.54v-8.9c0-.54-.09-1-.27-1.4-.18-.4-.42-.72-.73-.95-.3-.24-.66-.39-1.06-.45-.4-.06-.82-.03-1.26.1-.44.13-.89.37-1.34.7-.45.34-.88.79-1.28,1.35v9.55h-2.55v-10.52c0-.28-.03-.52-.09-.71-.06-.19-.14-.34-.23-.46-.09-.12-.2-.21-.31-.26s-.23-.1-.35-.12c-.12-.02-.22-.03-.32-.03h-.24l.35-1.61c.51-.19.99-.28,1.44-.26s.85.12,1.19.31c.34.19.61.45.81.78.2.33.3.71.3,1.15l.09.06c.37-.59.8-1.06,1.29-1.4s.99-.59,1.52-.73c.53-.14,1.06-.18,1.6-.13.54.05,1.04.18,1.51.39.47.2.88.48,1.25.82.36.34.64.73.83,1.16h.13c.31-.46.67-.85,1.09-1.17.42-.33.86-.59,1.32-.78.47-.19.95-.32,1.44-.38.5-.06.98-.04,1.45.04.47.08.91.24,1.33.46s.78.53,1.09.9c.31.38.56.82.74,1.35.18.52.28,1.12.28,1.8v9.36h-2.55Z"/><path class="cls-4" d="M345.59,73.41c-.13.09-.29.16-.47.21s-.38.08-.6.08c-.21,0-.43-.03-.65-.09s-.43-.16-.63-.29c-.2-.13-.39-.31-.55-.54-.17-.23-.3-.5-.39-.83-.54.51-1.12.9-1.76,1.18-.64.28-1.27.45-1.91.51s-1.25.02-1.85-.12c-.59-.14-1.12-.37-1.58-.7-.46-.33-.83-.74-1.1-1.24s-.41-1.08-.41-1.73.1-1.23.3-1.74c.2-.51.48-.96.84-1.34.36-.39.8-.71,1.31-.98.51-.27,1.07-.49,1.69-.65.62-.17,1.29-.29,2.01-.37.72-.08,1.47-.11,2.25-.11-.04-.09-.07-.21-.09-.35-.02-.15-.03-.29-.04-.44,0-.14-.01-.27,0-.39,0-.11,0-.18,0-.21,0-.23-.08-.44-.24-.65-.16-.21-.39-.39-.69-.55-.3-.16-.66-.28-1.09-.36-.43-.08-.91-.11-1.44-.08-.53.03-1.11.13-1.73.29-.62.16-1.28.41-1.97.74l-.58-1.91c.47-.26.97-.48,1.52-.68s1.1-.35,1.67-.46,1.14-.18,1.71-.21c.57-.03,1.12,0,1.65.07s1.02.21,1.48.39c.46.19.85.43,1.19.74.34.31.6.69.79,1.13s.29.96.29,1.55v7.29c0,.81.48,1.22,1.45,1.22l-.35,1.58ZM342.11,66.18c-1.01.09-1.88.23-2.61.42-.73.18-1.34.42-1.81.69s-.82.61-1.05.98c-.23.38-.34.81-.34,1.29,0,.35.08.65.22.9.15.25.36.46.62.61.27.16.58.27.94.33.36.06.75.08,1.17.04.42-.04.86-.13,1.32-.27.46-.14.92-.34,1.38-.58v-3.74c0-.08.02-.18.04-.3s.07-.24.12-.38Z"/><path class="cls-4" d="M355.23,73.08c-.83.3-1.57.5-2.21.59-.65.09-1.21.09-1.7,0s-.9-.24-1.24-.47c-.34-.23-.61-.52-.83-.86-.21-.34-.37-.72-.46-1.15s-.14-.87-.14-1.34v-7.39c0-.06,0-.14.01-.23s.02-.19.04-.28.05-.18.07-.27c.03-.09.06-.16.1-.22-.06.03-.13.04-.21.06-.08.01-.17.02-.25.03-.09,0-.17.01-.26.01h-1.25v-1.42c.44-.02.81-.06,1.11-.14s.54-.19.74-.33c.19-.14.35-.32.46-.54s.21-.47.28-.77.14-.64.2-1.03c.06-.39.13-.82.22-1.3h1.39l-.06,3.32s0,.07-.01.13-.02.12-.03.18-.03.13-.05.18c-.02.06-.04.1-.06.12.05-.02.09-.03.13-.03.04,0,.08-.02.13-.03.12-.02.21-.03.3-.04s.15-.02.19-.02h2.74v1.71h-2.77c-.13,0-.25,0-.34,0-.1,0-.22-.02-.37-.07.02.03.04.09.06.17.02.08.03.17.04.27,0,.1.02.19.02.29,0,.1,0,.18,0,.24v6.99c0,.45.07.82.19,1.13.13.31.34.54.63.7.29.15.66.23,1.12.22.46,0,1.03-.11,1.7-.3l.39,1.87Z"/><path class="cls-4" d="M358.72,56.6c-.37,0-.67-.08-.91-.24-.24-.16-.42-.36-.55-.6s-.19-.5-.19-.78.06-.54.19-.78.31-.44.55-.6c.24-.16.55-.24.91-.24s.66.08.9.24c.24.16.42.36.54.6s.18.5.18.78-.06.54-.18.78-.3.44-.54.6c-.24.16-.54.24-.9.24ZM357.46,73.37v-13.68h2.55v13.68h-2.55Z"/><path class="cls-4" d="M370.28,73.66c-.96,0-1.82-.13-2.57-.4-.76-.26-1.42-.63-1.98-1.08-.56-.46-1.02-.99-1.39-1.6s-.64-1.26-.81-1.94c-.18-.69-.26-1.39-.25-2.11.01-.72.11-1.43.31-2.11.2-.69.48-1.33.86-1.94.38-.61.84-1.14,1.39-1.6.55-.46,1.2-.82,1.93-1.08.73-.27,1.54-.4,2.44-.4s1.76.13,2.5.4c.74.26,1.39.63,1.95,1.08s1.03.99,1.41,1.6c.38.61.66,1.26.85,1.94.19.69.29,1.39.3,2.11,0,.72-.08,1.43-.26,2.11-.18.69-.45,1.33-.82,1.94s-.83,1.14-1.38,1.6c-.55.46-1.2.82-1.95,1.08-.75.26-1.59.4-2.52.4ZM370.5,71.6c.58,0,1.1-.09,1.55-.28.45-.19.84-.44,1.17-.77.32-.32.59-.7.79-1.13.2-.43.35-.89.43-1.38s.11-.99.08-1.5c-.03-.51-.12-1.01-.26-1.5s-.34-.94-.59-1.38c-.25-.43-.55-.81-.91-1.13-.35-.32-.76-.58-1.21-.77-.45-.19-.96-.28-1.51-.28-.59,0-1.12.09-1.58.28-.46.19-.86.44-1.19.77-.33.32-.61.7-.82,1.13-.21.43-.36.89-.45,1.38s-.12.99-.09,1.5.11,1.01.26,1.5.34.94.6,1.38.56.81.93,1.13c.36.32.78.58,1.24.77.47.19.99.28,1.56.28Z"/><path class="cls-4" d="M389.47,73.37v-9.1c0-.49-.1-.92-.29-1.3-.19-.38-.45-.68-.78-.91s-.7-.38-1.14-.44c-.43-.07-.89-.03-1.37.09-.48.13-.97.36-1.47.71-.5.34-.98.81-1.44,1.41v9.55h-2.55v-10.52c0-.28-.03-.52-.09-.71-.06-.19-.14-.34-.23-.46-.1-.12-.2-.21-.32-.26-.11-.06-.23-.1-.35-.12-.12-.02-.22-.03-.32-.03h-.24l.35-1.61c.51-.19.99-.28,1.44-.26.45.02.85.12,1.19.31.34.19.61.45.81.78.2.33.3.71.3,1.15l.1.06c.31-.44.68-.82,1.1-1.14s.87-.57,1.35-.75.97-.3,1.47-.35c.5-.05,1-.04,1.48.05.48.08.94.23,1.37.45.43.22.8.51,1.12.87.32.36.58.79.76,1.29s.28,1.08.28,1.72v9.55h-2.55Z"/><path class="cls-4" d="M146.42,101.73c-.13.09-.29.16-.47.21s-.38.08-.6.08c-.21,0-.43-.03-.65-.09-.22-.06-.43-.16-.63-.29-.2-.13-.39-.31-.55-.54-.17-.23-.3-.5-.39-.83-.54.51-1.12.9-1.76,1.18-.64.28-1.27.45-1.91.51s-1.25.02-1.85-.12c-.59-.14-1.12-.37-1.58-.7-.46-.33-.83-.74-1.1-1.24-.27-.5-.41-1.08-.41-1.73s.1-1.23.29-1.74c.2-.51.48-.96.84-1.34.36-.39.8-.71,1.31-.98.51-.27,1.07-.49,1.69-.65s1.29-.29,2-.37c.72-.08,1.47-.11,2.25-.11-.04-.09-.07-.21-.09-.35-.02-.15-.03-.29-.04-.44,0-.14-.01-.27,0-.39,0-.11,0-.18,0-.21,0-.23-.08-.44-.24-.65s-.39-.39-.69-.55c-.3-.16-.66-.28-1.09-.36-.43-.08-.91-.11-1.44-.08s-1.11.13-1.73.29c-.62.16-1.28.41-1.97.74l-.58-1.91c.47-.26.97-.48,1.52-.68s1.1-.35,1.67-.46,1.14-.18,1.71-.21c.57-.03,1.12,0,1.65.07.53.08,1.02.21,1.48.39.46.19.85.43,1.19.74.34.31.6.69.79,1.13s.29.96.29,1.55v7.29c0,.81.48,1.22,1.45,1.22l-.35,1.58ZM142.94,94.51c-1.01.09-1.88.23-2.61.42s-1.33.42-1.81.69-.82.61-1.05.98-.34.81-.34,1.29c0,.35.07.65.22.9.15.25.36.46.62.61.27.16.58.27.94.33.36.06.75.08,1.17.04.42-.04.86-.13,1.32-.27.46-.14.92-.34,1.38-.58v-3.74c0-.08.02-.18.04-.3.03-.11.07-.24.12-.38Z"/><path class="cls-4" d="M158.52,101.7v-9.1c0-.49-.1-.92-.29-1.3-.19-.38-.45-.68-.78-.91-.33-.23-.71-.38-1.14-.44-.43-.07-.89-.03-1.37.09-.48.13-.97.36-1.47.71-.5.34-.98.81-1.44,1.41v9.55h-2.55v-10.52c0-.28-.03-.52-.09-.71-.06-.19-.14-.34-.23-.46-.09-.12-.2-.21-.31-.26-.12-.06-.23-.1-.35-.12-.11-.02-.22-.03-.32-.03h-.24l.35-1.61c.51-.19.99-.28,1.44-.26s.85.12,1.19.31c.34.19.61.45.81.78.2.33.3.71.3,1.15l.09.06c.31-.44.68-.82,1.1-1.14s.87-.57,1.35-.75.97-.3,1.47-.35c.5-.05,1-.04,1.48.05.48.08.94.23,1.37.45.43.22.8.51,1.12.87.32.36.58.79.76,1.29.19.5.28,1.08.28,1.72v9.55h-2.55Z"/><path class="cls-4" d="M177.62,101.73c-.13.08-.28.15-.46.2-.18.05-.37.08-.58.08-.21,0-.42-.02-.64-.07-.22-.05-.43-.14-.63-.26-.2-.12-.38-.29-.55-.49-.16-.21-.3-.46-.4-.76-.06.12-.2.27-.41.45-.21.18-.46.35-.76.51-.3.16-.63.3-1,.42-.37.12-.74.17-1.13.17-.92.03-1.74-.05-2.45-.22-.71-.18-1.33-.43-1.85-.76s-.96-.73-1.31-1.19c-.35-.46-.64-.97-.85-1.51s-.37-1.12-.46-1.72c-.09-.6-.14-1.21-.14-1.82,0-1.09.18-2.06.53-2.93.36-.87.85-1.61,1.47-2.21.62-.61,1.35-1.07,2.19-1.4.84-.33,1.74-.49,2.71-.49.32,0,.6.01.86.04.26.03.51.08.76.14.25.07.5.15.75.27.25.11.53.25.83.42-.04-.15-.07-.25-.09-.31-.02-.06-.04-.11-.05-.16-.01-.05-.02-.11-.02-.18,0-.07,0-.19,0-.36v-5.81h2.58v17.13c0,.81.48,1.22,1.45,1.22l-.35,1.58ZM174.14,98.31c-.04-.17-.07-.3-.1-.39-.02-.09-.04-.17-.05-.23-.01-.06-.02-.12-.02-.17,0-.05,0-.12,0-.21v-5.32c0-.09,0-.17,0-.24,0-.07.01-.14.02-.22.01-.08.03-.16.05-.25s.05-.2.08-.33c-.22-.2-.47-.36-.74-.49-.27-.13-.54-.23-.82-.31s-.54-.13-.8-.16c-.26-.03-.48-.04-.68-.04-.58,0-1.11.09-1.57.28s-.87.43-1.22.74c-.35.31-.64.68-.87,1.1-.23.42-.4.87-.52,1.34s-.17.95-.17,1.45.06.98.17,1.45c.12.47.29.92.51,1.34.23.42.51.79.84,1.1s.73.56,1.17.74c.45.18.95.28,1.5.28.35,0,.68-.04,1-.12.32-.08.61-.18.88-.32.27-.13.51-.29.73-.46.22-.17.4-.36.56-.55Z"/><path class="cls-4" d="M198.13,100.22c-.74.53-1.51.94-2.32,1.23-.81.29-1.62.47-2.43.54s-1.62.02-2.41-.12c-.79-.15-1.54-.39-2.25-.73-.71-.34-1.37-.78-1.97-1.3-.6-.53-1.13-1.14-1.57-1.83-.44-.69-.79-1.47-1.03-2.32-.25-.85-.37-1.77-.37-2.76s.12-1.91.36-2.76c.24-.85.58-1.63,1-2.32s.94-1.3,1.53-1.83c.59-.53,1.24-.96,1.94-1.3.7-.34,1.44-.58,2.23-.71s1.59-.16,2.4-.08c.82.08,1.63.28,2.46.59.82.31,1.62.75,2.4,1.32l-1.1,2.1c-.55-.39-1.12-.7-1.72-.93-.59-.23-1.19-.39-1.78-.47-.6-.08-1.18-.08-1.76,0-.58.07-1.12.22-1.64.44-.52.22-1,.51-1.43.87-.44.36-.82.79-1.14,1.29-.32.5-.57,1.07-.75,1.7-.18.63-.27,1.33-.27,2.09s.09,1.43.28,2.06c.19.63.44,1.2.77,1.71.33.51.72.95,1.17,1.32.45.37.94.67,1.47.91.53.23,1.08.39,1.67.48s1.17.09,1.77.02c.6-.07,1.19-.23,1.78-.46.59-.23,1.15-.56,1.69-.97l1.03,2.26Z"/><path class="cls-4" d="M206.52,101.99c-.96,0-1.82-.13-2.58-.4s-1.41-.63-1.98-1.08c-.56-.46-1.03-.99-1.39-1.6s-.64-1.26-.81-1.94c-.17-.69-.26-1.39-.25-2.11.01-.72.11-1.43.31-2.11.2-.69.48-1.33.86-1.94.37-.61.84-1.14,1.39-1.6s1.2-.82,1.93-1.08c.73-.27,1.54-.4,2.44-.4s1.76.13,2.5.4c.74.26,1.39.63,1.95,1.08.56.46,1.03.99,1.41,1.6.38.61.66,1.26.85,1.94.19.69.29,1.39.3,2.11,0,.72-.08,1.43-.26,2.11s-.45,1.33-.82,1.94-.83,1.14-1.38,1.6c-.55.46-1.2.82-1.95,1.08-.74.26-1.59.4-2.52.4ZM206.74,99.93c.58,0,1.1-.09,1.55-.28.45-.19.84-.44,1.17-.77.33-.32.59-.7.79-1.13s.35-.89.43-1.38.11-.99.08-1.5-.12-1.01-.26-1.5c-.14-.49-.34-.94-.59-1.38-.25-.43-.55-.81-.91-1.13-.35-.32-.76-.58-1.21-.77-.45-.19-.96-.28-1.51-.28-.59,0-1.12.09-1.58.28-.46.19-.86.44-1.19.77-.33.32-.61.7-.82,1.13-.21.43-.36.89-.45,1.38s-.12.99-.09,1.5.11,1.01.26,1.5c.14.49.34.94.59,1.38.26.43.56.81.93,1.13.36.32.78.58,1.24.77.47.19.99.28,1.56.28Z"/><path class="cls-4" d="M233.65,101.7v-8.9c0-.54-.09-1-.27-1.4-.18-.4-.42-.72-.73-.95-.3-.24-.66-.39-1.06-.45s-.82-.03-1.26.1c-.44.13-.88.37-1.34.7-.45.34-.88.79-1.28,1.35v9.55h-2.54v-8.9c0-.54-.09-1-.27-1.4-.18-.4-.42-.72-.73-.95-.3-.24-.66-.39-1.06-.45-.4-.06-.82-.03-1.26.1-.44.13-.89.37-1.34.7-.45.34-.88.79-1.28,1.35v9.55h-2.55v-10.52c0-.28-.03-.52-.09-.71-.06-.19-.14-.34-.23-.46-.09-.12-.2-.21-.31-.26-.12-.06-.23-.1-.35-.12-.12-.02-.22-.03-.32-.03h-.24l.35-1.61c.51-.19.99-.28,1.44-.26s.85.12,1.19.31c.34.19.61.45.81.78.2.33.3.71.3,1.15l.09.06c.37-.59.8-1.06,1.29-1.4s.99-.59,1.52-.73c.53-.14,1.06-.18,1.6-.13.54.05,1.04.18,1.51.39.47.2.88.48,1.25.82.36.34.64.73.83,1.16h.13c.31-.46.67-.85,1.09-1.17.42-.33.86-.59,1.32-.78.47-.19.95-.32,1.44-.38.5-.06.98-.04,1.45.04.47.08.91.24,1.33.46s.78.53,1.09.9c.31.38.56.82.74,1.35.18.52.28,1.12.28,1.8v9.36h-2.55Z"/><path class="cls-4" d="M257.04,101.7v-8.9c0-.54-.09-1-.27-1.4-.18-.4-.42-.72-.73-.95-.3-.24-.66-.39-1.06-.45s-.82-.03-1.26.1c-.44.13-.88.37-1.34.7-.45.34-.88.79-1.28,1.35v9.55h-2.54v-8.9c0-.54-.09-1-.27-1.4-.18-.4-.42-.72-.73-.95-.3-.24-.66-.39-1.06-.45-.4-.06-.82-.03-1.26.1-.44.13-.89.37-1.34.7-.45.34-.88.79-1.28,1.35v9.55h-2.55v-10.52c0-.28-.03-.52-.09-.71-.06-.19-.14-.34-.23-.46-.09-.12-.2-.21-.31-.26-.12-.06-.23-.1-.35-.12-.12-.02-.22-.03-.32-.03h-.24l.35-1.61c.51-.19.99-.28,1.44-.26s.85.12,1.19.31c.34.19.61.45.81.78.2.33.3.71.3,1.15l.09.06c.37-.59.8-1.06,1.29-1.4s.99-.59,1.52-.73c.53-.14,1.06-.18,1.6-.13.54.05,1.04.18,1.51.39.47.2.88.48,1.25.82.36.34.64.73.83,1.16h.13c.31-.46.67-.85,1.09-1.17.42-.33.86-.59,1.32-.78.47-.19.95-.32,1.44-.38.5-.06.98-.04,1.45.04.47.08.91.24,1.33.46s.78.53,1.09.9c.31.38.56.82.74,1.35.18.52.28,1.12.28,1.8v9.36h-2.55Z"/><path class="cls-4" d="M275.94,101.73c-.51.19-.99.29-1.44.28s-.85-.11-1.19-.29c-.34-.18-.61-.44-.81-.78-.2-.34-.3-.73-.3-1.18l-.09-.06c-.32.45-.68.83-1.11,1.14-.42.32-.87.56-1.35.75s-.97.3-1.48.35-1,.04-1.48-.05c-.48-.08-.94-.23-1.37-.45-.43-.22-.81-.51-1.13-.86-.32-.36-.58-.78-.76-1.28-.19-.5-.28-1.06-.28-1.7v-9.59h2.54v9.1c0,.5.1.94.29,1.32.19.38.46.69.79.92.33.23.71.38,1.15.45.44.07.89.03,1.38-.1.48-.13.97-.37,1.47-.71.5-.34.98-.81,1.43-1.39v-9.59h2.55v10.52c0,.28.03.51.09.7.06.19.14.34.23.46.09.12.2.21.31.27s.23.11.34.13c.11.02.22.04.32.04.1,0,.17,0,.22,0l-.32,1.58Z"/><path class="cls-4" d="M288.27,101.7v-9.1c0-.49-.1-.92-.29-1.3-.19-.38-.45-.68-.78-.91-.32-.23-.7-.38-1.14-.44-.43-.07-.89-.03-1.37.09-.48.13-.97.36-1.47.71-.5.34-.98.81-1.44,1.41v9.55h-2.55v-10.52c0-.28-.03-.52-.09-.71-.06-.19-.14-.34-.23-.46-.09-.12-.2-.21-.32-.26-.11-.06-.23-.1-.35-.12-.12-.02-.22-.03-.32-.03h-.24l.35-1.61c.51-.19.99-.28,1.44-.26s.85.12,1.19.31c.34.19.61.45.81.78.2.33.3.71.3,1.15l.09.06c.31-.44.68-.82,1.1-1.14s.87-.57,1.35-.75c.48-.18.97-.3,1.47-.35.5-.05,1-.04,1.48.05.48.08.94.23,1.37.45.43.22.8.51,1.12.87.32.36.58.79.76,1.29s.28,1.08.28,1.72v9.55h-2.55Z"/><path class="cls-4" d="M295.95,84.92c-.37,0-.67-.08-.91-.24-.24-.16-.42-.36-.55-.6s-.18-.5-.18-.78.06-.54.18-.78.31-.44.55-.6c.24-.16.55-.24.91-.24s.66.08.9.24c.24.16.42.36.54.6s.18.5.18.78-.06.54-.18.78-.3.44-.54.6c-.24.16-.54.24-.9.24ZM294.69,101.7v-13.68h2.55v13.68h-2.55Z"/><path class="cls-4" d="M311.82,100.15c-.5.47-1.04.85-1.63,1.13-.59.29-1.2.49-1.82.61-.63.12-1.25.15-1.89.09-.63-.05-1.24-.19-1.83-.42-.59-.22-1.13-.53-1.64-.91s-.95-.85-1.33-1.39-.67-1.16-.89-1.86-.32-1.47-.32-2.32.1-1.68.3-2.39c.2-.72.48-1.36.84-1.92s.78-1.05,1.26-1.45,1.01-.73,1.57-.98c.56-.25,1.16-.42,1.78-.51.62-.09,1.24-.1,1.87-.04.63.07,1.24.22,1.85.44s1.18.54,1.72.93l-1.2,1.77c-.5-.36-1.04-.62-1.59-.8-.56-.17-1.11-.25-1.65-.23s-1.06.14-1.55.36c-.49.22-.93.54-1.3.96-.37.42-.67.95-.89,1.58-.22.63-.33,1.37-.33,2.21,0,.69.11,1.32.34,1.89s.53,1.06.92,1.47.84.74,1.36.98c.51.24,1.06.37,1.63.4.57.03,1.16-.06,1.76-.27.6-.2,1.18-.54,1.74-1.02l.93,1.68Z"/><path class="cls-4" d="M325.73,101.73c-.13.09-.29.16-.47.21s-.38.08-.59.08c-.21,0-.43-.03-.65-.09-.22-.06-.43-.16-.63-.29-.2-.13-.39-.31-.55-.54-.16-.23-.29-.5-.39-.83-.54.51-1.12.9-1.76,1.18-.64.28-1.27.45-1.91.51-.64.06-1.25.02-1.85-.12-.59-.14-1.12-.37-1.58-.7-.46-.33-.83-.74-1.1-1.24s-.41-1.08-.41-1.73.1-1.23.3-1.74c.2-.51.48-.96.84-1.34.36-.39.8-.71,1.31-.98.51-.27,1.07-.49,1.69-.65.62-.17,1.29-.29,2-.37s1.47-.11,2.25-.11c-.04-.09-.07-.21-.09-.35s-.03-.29-.04-.44c0-.14-.01-.27,0-.39,0-.11,0-.18,0-.21,0-.23-.08-.44-.24-.65-.16-.21-.39-.39-.69-.55-.3-.16-.66-.28-1.09-.36-.43-.08-.91-.11-1.44-.08-.53.03-1.11.13-1.73.29-.62.16-1.28.41-1.97.74l-.58-1.91c.47-.26.97-.48,1.52-.68s1.1-.35,1.67-.46,1.14-.18,1.71-.21c.57-.03,1.12,0,1.65.07.53.08,1.02.21,1.48.39.46.19.85.43,1.19.74.34.31.6.69.79,1.13s.29.96.29,1.55v7.29c0,.81.48,1.22,1.45,1.22l-.35,1.58ZM322.25,94.51c-1.01.09-1.88.23-2.61.42s-1.34.42-1.81.69c-.47.28-.82.61-1.05.98-.23.38-.34.81-.34,1.29,0,.35.08.65.23.9.15.25.36.46.62.61.27.16.58.27.94.33.36.06.75.08,1.17.04.42-.04.86-.13,1.31-.27.46-.14.92-.34,1.38-.58v-3.74c0-.08.02-.18.04-.3s.07-.24.12-.38Z"/><path class="cls-4" d="M335.37,101.41c-.83.3-1.57.5-2.21.59-.65.09-1.21.09-1.7,0s-.9-.24-1.24-.47c-.34-.23-.61-.52-.83-.86-.21-.34-.37-.72-.46-1.15s-.14-.87-.14-1.34v-7.39c0-.06,0-.14.01-.23s.02-.19.04-.28.05-.18.07-.27c.03-.09.06-.16.1-.22-.06.03-.13.04-.21.06-.08.01-.17.02-.25.03-.09,0-.17.01-.26.01h-1.25v-1.42c.44-.02.81-.06,1.11-.14s.54-.19.74-.33c.19-.14.35-.32.46-.54s.21-.47.28-.77.14-.64.2-1.03c.06-.39.13-.82.22-1.3h1.39l-.06,3.32s0,.07-.01.13-.02.12-.03.18-.03.13-.05.18c-.02.06-.04.1-.06.12.05-.02.09-.03.13-.03.04,0,.08-.02.13-.03.12-.02.21-.03.3-.04s.15-.02.19-.02h2.74v1.71h-2.77c-.13,0-.25,0-.34,0-.1,0-.22-.02-.37-.07.02.03.04.09.06.17.02.08.03.17.04.27,0,.1.02.19.02.29,0,.1,0,.18,0,.24v6.99c0,.45.07.82.19,1.13.13.31.34.54.63.7.29.15.66.23,1.12.22.46,0,1.03-.11,1.7-.3l.39,1.87Z"/><path class="cls-4" d="M338.86,84.92c-.37,0-.67-.08-.91-.24-.24-.16-.42-.36-.55-.6s-.18-.5-.18-.78.06-.54.18-.78.31-.44.55-.6c.24-.16.55-.24.91-.24s.66.08.9.24c.24.16.42.36.54.6s.18.5.18.78-.06.54-.18.78-.3.44-.54.6c-.24.16-.54.24-.9.24ZM337.6,101.7v-13.68h2.55v13.68h-2.55Z"/><path class="cls-4" d="M350.42,101.99c-.96,0-1.82-.13-2.58-.4s-1.42-.63-1.98-1.08c-.56-.46-1.03-.99-1.39-1.6s-.64-1.26-.81-1.94-.26-1.39-.25-2.11c.01-.72.11-1.43.31-2.11.2-.69.48-1.33.86-1.94.37-.61.84-1.14,1.39-1.6.55-.46,1.2-.82,1.93-1.08.73-.27,1.54-.4,2.44-.4s1.76.13,2.5.4c.74.26,1.39.63,1.95,1.08s1.03.99,1.41,1.6c.38.61.66,1.26.85,1.94.19.69.29,1.39.3,2.11,0,.72-.08,1.43-.26,2.11s-.45,1.33-.82,1.94-.83,1.14-1.38,1.6c-.55.46-1.2.82-1.95,1.08-.75.26-1.59.4-2.52.4ZM350.64,99.93c.58,0,1.1-.09,1.55-.28.45-.19.84-.44,1.17-.77.32-.32.59-.7.79-1.13s.35-.89.43-1.38.11-.99.08-1.5-.12-1.01-.26-1.5c-.14-.49-.34-.94-.59-1.38-.25-.43-.55-.81-.91-1.13-.35-.32-.76-.58-1.21-.77-.45-.19-.96-.28-1.51-.28-.59,0-1.12.09-1.58.28-.46.19-.86.44-1.19.77-.33.32-.61.7-.82,1.13-.21.43-.36.89-.45,1.38s-.12.99-.09,1.5.11,1.01.26,1.5c.14.49.34.94.59,1.38s.56.81.93,1.13c.36.32.78.58,1.24.77.47.19.99.28,1.56.28Z"/><path class="cls-4" d="M369.61,101.7v-9.1c0-.49-.1-.92-.29-1.3s-.45-.68-.78-.91c-.33-.23-.71-.38-1.14-.44-.43-.07-.89-.03-1.37.09-.48.13-.97.36-1.47.71-.5.34-.98.81-1.44,1.41v9.55h-2.55v-10.52c0-.28-.03-.52-.09-.71-.06-.19-.14-.34-.23-.46-.09-.12-.2-.21-.31-.26-.12-.06-.23-.1-.35-.12-.12-.02-.22-.03-.32-.03h-.24l.35-1.61c.51-.19.99-.28,1.44-.26s.85.12,1.19.31c.34.19.61.45.81.78.2.33.3.71.3,1.15l.09.06c.31-.44.68-.82,1.1-1.14s.87-.57,1.35-.75c.48-.18.97-.3,1.47-.35.5-.05,1-.04,1.48.05.48.08.94.23,1.37.45.43.22.8.51,1.12.87.32.36.58.79.76,1.29.19.5.28,1.08.28,1.72v9.55h-2.55Z"/><path class="cls-4" d="M387.63,86.48s-.13,0-.24-.02c-.12-.01-.24-.03-.37-.05.02.13.03.25.04.37,0,.12,0,.2,0,.24v14.68h-2.58v-14.68c0-.06,0-.15,0-.27s.01-.23.03-.35c-.11.02-.23.04-.36.05-.12.01-.21.02-.26.02h-4.8l.16-2.36h13.04l.16,2.36h-4.81Z"/><path class="cls-4" d="M406.05,94.99h-8.96c0,.66.09,1.24.26,1.76.18.52.41.97.71,1.35.3.38.65.7,1.04.94s.82.43,1.27.54c.45.12.91.17,1.38.15s.93-.1,1.37-.24c.44-.15.86-.36,1.26-.64.39-.28.73-.62,1.02-1.03l1.23,1.72c-.37.51-.83.95-1.38,1.31-.55.36-1.14.64-1.78.83s-1.31.31-2,.33c-.7.02-1.38-.05-2.05-.21-.67-.16-1.3-.42-1.91-.78-.6-.36-1.13-.82-1.59-1.39-.46-.57-.82-1.25-1.09-2.03-.27-.78-.4-1.68-.4-2.7,0-.6.06-1.19.18-1.78s.3-1.14.54-1.67c.24-.53.54-1.02.91-1.48s.8-.85,1.3-1.18c.5-.33,1.06-.59,1.69-.78.63-.19,1.33-.28,2.1-.28.69,0,1.32.08,1.88.23.56.15,1.06.36,1.5.63.44.27.81.59,1.13.96.32.37.58.77.78,1.2.21.43.36.88.46,1.36.1.47.15.95.15,1.44l-1,1.45ZM404.66,93.19c-.06-.43-.16-.81-.32-1.14-.15-.33-.34-.61-.55-.85-.21-.24-.44-.44-.69-.59s-.49-.28-.74-.38c-.24-.1-.48-.17-.71-.21-.23-.04-.42-.06-.59-.06-.51,0-.99.09-1.44.28-.44.19-.83.44-1.16.74s-.6.65-.8,1.04c-.21.39-.33.78-.37,1.17h7.36Z"/><path class="cls-4" d="M420.57,100.15c-.5.47-1.04.85-1.63,1.13-.59.29-1.2.49-1.82.61-.63.12-1.25.15-1.89.09-.63-.05-1.24-.19-1.83-.42-.59-.22-1.13-.53-1.64-.91-.51-.38-.95-.85-1.33-1.39-.38-.54-.67-1.16-.89-1.86-.22-.7-.32-1.47-.32-2.32s.1-1.68.3-2.39c.2-.72.48-1.36.84-1.92.36-.56.78-1.05,1.26-1.45s1.01-.73,1.57-.98c.56-.25,1.16-.42,1.78-.51.62-.09,1.24-.1,1.87-.04.63.07,1.24.22,1.85.44s1.18.54,1.72.93l-1.2,1.77c-.5-.36-1.04-.62-1.59-.8-.56-.17-1.11-.25-1.65-.23-.54.02-1.06.14-1.55.36-.49.22-.93.54-1.3.96-.37.42-.67.95-.89,1.58-.22.63-.33,1.37-.33,2.21,0,.69.11,1.32.34,1.89.23.57.53,1.06.92,1.47s.84.74,1.36.98c.51.24,1.06.37,1.63.4s1.16-.06,1.76-.27c.6-.2,1.18-.54,1.74-1.02l.93,1.68Z"/><path class="cls-4" d="M432.57,101.7v-8.74c0-.63-.11-1.16-.33-1.59-.22-.43-.51-.77-.86-1-.36-.24-.76-.38-1.22-.42-.46-.04-.93.01-1.41.17-.48.15-.96.41-1.43.76-.47.35-.89.8-1.27,1.35v9.48h-2.55v-19.9h2.55v6.87c0,.15,0,.36-.02.63-.01.27-.06.63-.14,1.08l.09.03c.37-.56.79-1.03,1.25-1.41s.94-.67,1.44-.88c.5-.21,1-.34,1.51-.39.51-.05,1-.03,1.48.07.47.09.92.26,1.34.5.42.24.78.53,1.09.89.31.36.55.78.73,1.25s.27,1,.27,1.59v9.68h-2.52Z"/><path class="cls-4" d="M447.99,101.7v-9.1c0-.49-.1-.92-.29-1.3-.19-.38-.45-.68-.78-.91-.33-.23-.7-.38-1.14-.44-.43-.07-.89-.03-1.37.09-.48.13-.97.36-1.47.71-.5.34-.98.81-1.44,1.41v9.55h-2.55v-10.52c0-.28-.03-.52-.09-.71-.06-.19-.14-.34-.23-.46-.09-.12-.2-.21-.31-.26s-.23-.1-.35-.12c-.11-.02-.22-.03-.32-.03h-.24l.35-1.61c.51-.19.99-.28,1.44-.26s.85.12,1.19.31c.34.19.61.45.81.78.2.33.3.71.3,1.15l.09.06c.31-.44.68-.82,1.1-1.14s.87-.57,1.35-.75.97-.3,1.47-.35c.5-.05,1-.04,1.48.05.48.08.94.23,1.37.45.43.22.8.51,1.12.87.32.36.58.79.77,1.29s.28,1.08.28,1.72v9.55h-2.55Z"/><path class="cls-4" d="M460.52,101.99c-.96,0-1.82-.13-2.57-.4-.76-.26-1.42-.63-1.98-1.08-.56-.46-1.02-.99-1.39-1.6s-.64-1.26-.81-1.94c-.18-.69-.26-1.39-.25-2.11.01-.72.11-1.43.31-2.11.2-.69.48-1.33.86-1.94.38-.61.84-1.14,1.39-1.6.55-.46,1.2-.82,1.93-1.08.73-.27,1.54-.4,2.44-.4s1.76.13,2.5.4c.74.26,1.39.63,1.95,1.08s1.03.99,1.41,1.6c.38.61.66,1.26.85,1.94.19.69.29,1.39.3,2.11,0,.72-.08,1.43-.26,2.11-.18.69-.45,1.33-.82,1.94s-.83,1.14-1.38,1.6c-.55.46-1.2.82-1.95,1.08-.75.26-1.59.4-2.52.4ZM460.74,99.93c.58,0,1.1-.09,1.55-.28.45-.19.84-.44,1.17-.77.32-.32.59-.7.79-1.13.2-.43.35-.89.43-1.38s.11-.99.08-1.5c-.03-.51-.12-1.01-.26-1.5s-.34-.94-.59-1.38c-.25-.43-.55-.81-.91-1.13-.35-.32-.76-.58-1.21-.77-.45-.19-.96-.28-1.51-.28-.59,0-1.12.09-1.58.28-.46.19-.86.44-1.19.77-.33.32-.61.7-.82,1.13-.21.43-.36.89-.45,1.38s-.12.99-.09,1.5.11,1.01.26,1.5.34.94.6,1.38.56.81.93,1.13c.36.32.78.58,1.24.77.47.19.99.28,1.56.28Z"/><path class="cls-4" d="M470.68,101.7v-19.9h2.55v19.9h-2.55Z"/><path class="cls-4" d="M483.5,101.99c-.96,0-1.82-.13-2.58-.4s-1.42-.63-1.98-1.08c-.56-.46-1.03-.99-1.39-1.6s-.63-1.26-.81-1.94-.26-1.39-.25-2.11c.01-.72.11-1.43.31-2.11.2-.69.48-1.33.86-1.94.37-.61.84-1.14,1.39-1.6s1.2-.82,1.93-1.08c.73-.27,1.54-.4,2.44-.4s1.76.13,2.5.4c.74.26,1.39.63,1.95,1.08.56.46,1.03.99,1.41,1.6.38.61.66,1.26.86,1.94.19.69.29,1.39.29,2.11,0,.72-.08,1.43-.26,2.11s-.45,1.33-.82,1.94c-.37.61-.83,1.14-1.38,1.6-.55.46-1.2.82-1.95,1.08-.75.26-1.59.4-2.52.4ZM483.72,99.93c.58,0,1.1-.09,1.55-.28.45-.19.84-.44,1.17-.77.33-.32.59-.7.79-1.13.2-.43.35-.89.43-1.38s.11-.99.08-1.5c-.03-.51-.12-1.01-.26-1.5s-.34-.94-.59-1.38c-.25-.43-.55-.81-.91-1.13-.35-.32-.76-.58-1.21-.77-.45-.19-.96-.28-1.51-.28-.59,0-1.12.09-1.58.28-.46.19-.86.44-1.19.77-.33.32-.61.7-.82,1.13-.21.43-.36.89-.45,1.38s-.12.99-.09,1.5.11,1.01.26,1.5c.14.49.34.94.6,1.38.25.43.56.81.92,1.13.36.32.78.58,1.25.77.47.19.99.28,1.56.28Z"/><path class="cls-4" d="M505.62,89.8c-.11.04-.27.06-.48.06s-.45-.02-.71-.04c-.26-.02-.52-.05-.78-.09-.27-.04-.5-.08-.7-.12l-.26.2c.36.33.65.71.87,1.15.21.43.36.89.43,1.37.07.48.07.96-.02,1.46-.08.49-.24.96-.46,1.41-.23.45-.53.85-.91,1.22-.38.37-.83.67-1.35.9-.53.23-1.12.38-1.8.45-.67.07-1.42.02-2.24-.15-.15.08-.29.19-.42.31-.13.12-.24.26-.32.4-.08.14-.12.29-.11.44s.07.3.2.45c.13.14.33.28.61.41.28.13.66.23,1.14.32.6.12,1.19.22,1.76.33.57.1,1.1.22,1.6.36s.96.3,1.39.48.79.41,1.1.69.56.6.74.98c.19.38.29.83.32,1.36.04.58-.05,1.11-.26,1.6-.21.48-.52.91-.91,1.28-.4.38-.87.7-1.41.97s-1.13.48-1.75.64c-.62.16-1.26.26-1.93.3-.66.04-1.31.03-1.94-.04-.63-.07-1.23-.2-1.8-.4-.57-.19-1.07-.45-1.51-.77-.44-.32-.79-.7-1.05-1.15-.27-.45-.41-.96-.44-1.54-.03-.43.05-.83.23-1.22.18-.39.43-.75.76-1.07s.73-.59,1.19-.82.96-.4,1.5-.5c-.02-.02-.03-.04-.03-.06,0-.04.01-.07.03-.09-.49-.08-.89-.23-1.21-.44-.32-.21-.56-.46-.72-.74-.16-.28-.24-.57-.25-.89,0-.31.06-.61.2-.91.14-.29.35-.56.63-.8.28-.24.62-.42,1.03-.56-.29-.18-.58-.4-.89-.66s-.58-.55-.82-.89c-.25-.34-.45-.72-.6-1.14-.16-.42-.24-.89-.24-1.41,0-.62.08-1.19.24-1.68s.39-.93.67-1.31.61-.7.99-.97c.38-.26.79-.48,1.23-.65.44-.17.9-.3,1.37-.37.48-.08.95-.12,1.43-.12.28,0,.55.02.8.07s.49.11.7.18c.22.07.42.15.6.23.18.08.34.16.48.24.13-.06.3-.1.51-.12.21-.02.43-.04.67-.05.24-.01.49-.02.74-.04.25-.02.49-.05.71-.1.22-.05.42-.12.6-.22.17-.09.3-.23.39-.4l.48,2.29ZM502.72,104.54c-.04-.4-.15-.73-.31-.99-.17-.26-.37-.48-.62-.65-.25-.17-.53-.3-.83-.4-.31-.1-.63-.18-.95-.25-.33-.07-.66-.13-.98-.19-.33-.06-.63-.13-.91-.23-.55.15-1.03.35-1.45.59s-.76.5-1.04.79c-.28.28-.48.58-.62.89-.14.31-.2.61-.19.9.02.4.14.74.39,1.02.24.28.55.51.94.68s.82.29,1.3.35.97.08,1.47.04c.5-.03.98-.12,1.45-.24.47-.13.88-.3,1.24-.52s.64-.47.85-.78c.2-.3.29-.64.26-1.01ZM498.53,96.02c.51,0,.96-.09,1.33-.28.37-.19.68-.44.92-.74.24-.31.41-.66.52-1.05s.15-.8.14-1.21c-.02-.41-.09-.82-.23-1.21s-.33-.74-.58-1.05c-.25-.31-.55-.55-.9-.74-.35-.19-.75-.28-1.21-.28-.5,0-.93.09-1.3.28-.36.19-.67.44-.91.74-.24.31-.42.66-.53,1.05-.12.39-.17.8-.16,1.21,0,.41.07.81.2,1.21.13.39.31.74.55,1.05.24.31.54.55.9.74.36.19.78.28,1.25.28Z"/><path class="cls-4" d="M513.88,103.12c-.39.94-.82,1.75-1.3,2.43-.47.67-1.01,1.2-1.61,1.59-.6.39-1.26.63-1.98.72s-1.54.03-2.44-.18l.52-2.29c.43.15.82.22,1.17.23.35,0,.66-.04.94-.14.28-.1.53-.24.75-.41.22-.18.41-.38.59-.61s.33-.46.46-.72c.13-.25.26-.5.37-.74s.23-.5.34-.78c.11-.28.26-.62.44-1.03l-5-12.84,2.45-.61,3.23,8.55c.02.06.06.15.1.29.05.13.1.29.15.47.06.18.11.38.18.59s.12.43.18.65h.09c.06-.22.11-.43.17-.64.06-.2.11-.39.16-.57s.1-.33.14-.48c.04-.14.08-.26.11-.35l3.39-8.52,2.39.65-6,14.75Z"/></g><g><path class="cls-5" d="M114.58,57.84c0,31.34-25.41,56.75-56.75,56.75S1.09,89.18,1.09,57.84,26.49,1.09,57.83,1.09s56.75,25.41,56.75,56.75Z"/><circle class="cls-4" cx="57.29" cy="57.55" r="38.98" transform="translate(-23.25 67.93) rotate(-52.48)"/><path class="cls-7" d="M15.85,75.7c-.05-.16-.08-.27-.09-.35l1.28.52c.06.3.09.5.1.62.08.83-.21,1.38-.88,1.63l-2.17.82c-.01.08-.02.35-.02.79,0,.45-.06.98-.18,1.58-.03.17-.07.32-.1.47l3.77-1.43,1.67,1.28-5.81,2.2-1.65-1.28c.26-.28.59-.73,1-1.35.13-.26.22-.65.28-1.18.02-.16.03-.4.05-.72l-1.23.47-1.66-1.32c.08-.05.18-.13.3-.23.43-.34.75-.66.95-.95.11-.15.23-.4.37-.75.06-.15.12-.31.17-.48.13.05.23.1.31.15.22.12.4.24.54.35.23.19.42.37.55.54.01.01.04.06.1.13l2.1-.8c.27-.1.35-.34.26-.72ZM12.98,77.41s0-.11-.05-.22c-.08-.22-.16-.38-.23-.48-.02,0-.04.02-.05.03,0,.12-.04.31-.14.56-.03.08-.08.19-.17.35l.64-.24Z"/><path class="cls-7" d="M20.56,83.9c.08.19.12.35.13.47.03.36-.08.64-.34.83-.08.06-.14.1-.18.12-.15.07-.52.08-1.13.03-.6-.05-1.14.12-1.61.51-.36.29-.51.89-.45,1.79l.21,1.19c.08.04.15.06.19.07.16.02.32-.03.47-.14.3-.22.55-.67.74-1.35.09-.3.24-.52.45-.68.3-.23.72-.3,1.24-.24.16.02.4.08.7.17,0-.04,0-.07-.02-.09-.04-.23-.04-.42,0-.59.01-.08.04-.13.07-.16.02-.01.05-.02.08-.01l1.7.35c-.11.21-.18.38-.2.51-.09.4,0,.77.25,1.11.19.25.45.44.79.58.34.14.63.17.86.09-.1.03-.19.06-.27.1-.21.04-.4.06-.58.07-.03,0-.15-.02-.37-.08l-.31-.06c.02.09.03.19.04.28.04.37.02.7-.06.99-.05.18-.12.3-.21.37l-3.17,2.34-1.85-.85,3.62-2.67c.25-.19.32-.55.2-1.1-.03-.14-.11-.33-.23-.57-.03-.05-.09-.16-.19-.34-.03-.04-.11-.02-.24.07-.3.22-.61.75-.94,1.58-.08.18-.19.34-.35.45-.32.24-.82.34-1.49.31-.57-.03-1.12-.11-1.65-.26-.17-.06-.43-.15-.77-.26-.03-.05-.08-.29-.13-.72-.18-1.43.05-2.39.7-2.88.24-.18.69-.27,1.35-.26.66,0,1.09-.07,1.29-.22.26-.19.33-.46.23-.81-.03-.08-.07-.21-.14-.38l1.58.35Z"/><path class="cls-7" d="M26.68,92.51l-2.43-2.11,1.86-.12,2.78,2.41-4.08,4.7-2.06-.35,3.94-4.53Z"/><path class="cls-7" d="M31.4,94.16l3.17,2.2-3.5,5.06-2.38-.23s-.1-.08-.17-.14c-.25-.23-.46-.5-.65-.81-.11-.17-.17-.42-.21-.75,0-.15.02-.3.03-.45l1.44-.05c-.08.13-.13.23-.16.29-.09.23-.1.44-.01.61.14.28.29.48.46.6.05.03.08.04.09.02l2.84-4.1-2.65-1.84,1.69-.42Z"/><path class="cls-7" d="M32.47,93.76c.12.07.33.1.64.09.1,0,.25,0,.43-.03-.28.08-.51.13-.69.15-.53.08-.94.06-1.23-.07-.05-.02-.12-.06-.19-.1-.33-.19-.65-.49-.97-.9-.12-.19-.24-.38-.36-.58.14-.04.34-.1.62-.16.44-.09.95-.13,1.51-.12.81.01,1.48.18,2.03.5.8.47,1.49,1.27,2.07,2.41.06.13.15.32.27.58l-1.56.31c.02-.21.01-.37-.01-.5-.08-.41-.3-.85-.66-1.3-.53-.66-1.03-1.13-1.5-1.41-.32-.18-.64-.32-.96-.4-.12-.03-.24-.05-.38-.06.03.2.06.4.1.59.23.47.51.8.85.99Z"/><path class="cls-7" d="M36.43,97.58c.22.23.37.4.46.53.29.42.37.79.25,1.09-.07.12-.31.31-.74.58-.4.24-.67.56-.83.96-.07.18-.13.39-.19.64-.12.52-.04,1.15.26,1.88.16.3.33.61.5.91.1-.05.17-.09.22-.13.17-.14.3-.33.4-.58.16-.42.21-.95.12-1.61-.04-.3,0-.63.14-.96.24-.6.74-1.11,1.5-1.54.67-.37,1.13-.51,1.38-.41l2.78,1.1-2.3,5.78-2.06.35,2.24-5.64-1.79-.71c-.09-.04-.15,0-.2.11-.01.18-.03.75-.07,1.7-.02.55-.09.96-.2,1.25l-.06.14s-.03.05-.04.07c-.48.82-1.37,1.37-2.66,1.64-.22.03-.45.05-.67.07-.05-.02-.18-.2-.42-.54-.77-1.14-.98-2.13-.65-2.97.11-.27.43-.58.96-.91.53-.33.85-.62.94-.85.14-.35.04-.66-.31-.93-.05-.04-.18-.13-.41-.29l1.46-.75Z"/><path class="cls-7" d="M45.88,101.06c.08-.02.17-.02.26,0,.24.05.5.22.77.51.26.27.37.41.33.43l-1.32.71c-.01-.06-.03-.13-.05-.22-.11-.31-.38-.51-.8-.6-.34-.07-.53,0-.56.2-.04.17.03.39.2.67.17.28.36.49.56.62.27.18.56.31.88.37.23.05.46.06.69.04.08,0,.17-.03.27-.05-.29.07-.62.18-.99.33-.91.35-1.41.71-1.49,1.1-.09.46.31,1.01,1.2,1.67.47.25.93.49,1.4.74l1.04-5.06,2.01-.72-1.14,5.56-3.09,1.04c-.1.03-.42-.09-.96-.36-1.63-.79-2.36-1.6-2.19-2.42,0,0,0-.02,0-.05.08-.39.43-.7,1.06-.93.2-.07.51-.15.93-.23-.96-.22-1.47-.66-1.55-1.35,0-.02,0-.07.01-.13.07-.32.4-.69,1.01-1.1.58-.39,1.1-.64,1.56-.75Z"/><path class="cls-7" d="M54.54,103.61l-3.21-.21,1.41-1.22,3.67.24-.41,6.21-1.86.97.4-5.99Z"/><path class="cls-7" d="M60.39,110.09c-.07-.03-.23-.15-.47-.35-.91-.76-1.4-1.52-1.46-2.28-.09-1.12.39-2.12,1.43-3,.31-.26.48-.39.53-.39l-2.54.21.97-1.39,6.43-.52.5,6.2-1.8,1.24c-.09-.09-.32-.43-.69-1.02l-1.18-1.87c-.3-.49-.74-1-1.3-1.54-.27-.19-.54-.39-.82-.59-.06.14-.12.28-.17.41-.07.36-.09.72-.06,1.08.03.42.14.77.31,1.05.32.5.66.87,1.01,1.09.21.13.48.21.81.22l-1.51,1.45ZM61.45,103.98l.55.57c.25.26.43.44.53.54.05.06.33.39.84.99.11.13.26.3.47.52l-.22-2.8-2.16.17Z"/><path class="cls-7" d="M62.84,99.35c-.04.07-.09.16-.13.24-.09.2-.12.37-.1.5.07.42.6.54,1.58.38.42-.07.87-.31,1.36-.73.38-.33.73-.69,1.05-1.09.08-.12.22-.3.4-.55-.09.19-.23.46-.43.81-.36.6-.82,1.15-1.38,1.64-.72.64-1.49,1.03-2.3,1.16-.51.09-1.06,0-1.65-.25-.23-.14-.46-.29-.68-.44l2.28-1.67Z"/><path class="cls-7" d="M68.88,101.34c.07-.06.14-.1.23-.12.24-.07.55-.04.92.09.35.12.51.19.49.23l-.84,1.24s-.09-.1-.15-.17c-.24-.22-.57-.27-.99-.15-.33.09-.47.24-.41.44.05.17.21.33.49.5.28.17.54.26.78.29.32.04.64.01.95-.08.22-.07.43-.16.63-.28.07-.05.14-.1.21-.17-.22.2-.47.45-.72.75-.65.73-.92,1.29-.81,1.66.13.45.74.76,1.84.92.53,0,1.06,0,1.59,0l-1.44-4.97,1.44-1.57,1.57,5.45-2.25,2.36c-.07.07-.41.12-1.02.13-1.81.06-2.83-.32-3.06-1.12,0,0-.02-.02-.02-.04-.11-.38.06-.82.5-1.31.15-.16.38-.37.72-.64-.95.26-1.62.1-2.01-.47-.01-.02-.03-.06-.05-.13-.09-.31.03-.8.38-1.45.33-.61.67-1.08,1.03-1.39Z"/><path class="cls-7" d="M75.91,99.74c-.15.06-.26.1-.34.13l.4-1.32c.29-.08.49-.13.61-.16.82-.16,1.39.08,1.71.73l1.02,2.09c.08,0,.35-.01.79-.06.45-.04.98-.03,1.59.03.17.02.33.04.48.06l-1.77-3.62,1.12-1.78,2.73,5.59-1.12,1.76c-.31-.23-.79-.52-1.44-.88-.27-.1-.67-.16-1.2-.17-.16,0-.4,0-.72.01l.58,1.19-1.16,1.78c-.06-.07-.14-.16-.25-.27-.38-.4-.73-.69-1.03-.86-.16-.09-.42-.19-.79-.3-.16-.05-.32-.09-.49-.13.04-.13.08-.24.12-.33.1-.23.2-.42.3-.57.17-.25.33-.45.49-.6.01-.01.05-.05.12-.11l-.99-2.02c-.13-.26-.37-.32-.74-.19ZM77.88,102.45s-.1.01-.22.07c-.21.1-.36.19-.46.27,0,.02.02.04.04.05.12-.02.31.01.57.09.08.02.2.07.36.13l-.3-.61Z"/><path class="cls-7" d="M84.17,94.47c.19-.08.35-.13.46-.14.36-.04.64.07.84.32.06.08.1.14.12.18.07.15.09.52.06,1.13-.04.6.14,1.14.54,1.6.3.35.9.49,1.79.42l1.19-.24c.04-.08.06-.15.06-.2.02-.16-.03-.32-.15-.47-.23-.29-.68-.53-1.37-.71-.3-.08-.53-.22-.69-.43-.23-.3-.32-.71-.27-1.24.02-.16.07-.4.16-.71-.04,0-.07.01-.09.02-.23.05-.43.05-.59.02-.08-.01-.14-.04-.16-.07-.01-.02-.02-.05-.02-.08l.31-1.71c.21.1.38.17.51.19.4.08.77-.01,1.11-.27.24-.19.43-.46.56-.8.13-.34.15-.63.07-.86.03.1.07.19.1.27.05.21.07.4.08.58,0,.03-.02.15-.07.37l-.06.31c.09-.02.19-.03.28-.05.37-.05.7-.03.99.04.18.05.3.11.37.2l2.41,3.12-.81,1.87-2.75-3.56c-.19-.25-.56-.31-1.1-.18-.14.04-.33.12-.57.24-.05.03-.16.09-.33.2-.04.03-.02.11.08.24.23.29.76.6,1.6.91.18.07.34.18.46.34.24.31.36.81.35,1.49-.01.57-.09,1.12-.22,1.65-.06.17-.14.43-.24.78-.04.04-.28.08-.72.15-1.43.21-2.39,0-2.89-.64-.18-.24-.28-.69-.29-1.35-.02-.66-.1-1.09-.25-1.28-.19-.25-.47-.32-.82-.21-.08.03-.21.08-.37.15l.31-1.59Z"/><path class="cls-7" d="M84.99,92.03c.1-.1.18-.29.26-.59.02-.1.05-.24.08-.43,0,.29,0,.52-.03.7-.06.53-.19.92-.39,1.17-.03.04-.08.1-.15.16-.27.26-.64.5-1.12.71-.21.07-.43.13-.65.2,0-.14,0-.36,0-.64.03-.45.12-.95.28-1.5.22-.78.55-1.39,1-1.83.66-.65,1.61-1.11,2.86-1.38.14-.03.35-.06.63-.11l-.1,1.58c-.19-.07-.35-.11-.48-.12-.42-.03-.9.07-1.43.3-.78.34-1.36.7-1.75,1.09-.26.26-.47.53-.63.82-.05.1-.11.22-.16.35.2.02.4.04.59.06.51-.1.9-.29,1.18-.56Z"/><path class="cls-7" d="M94.23,83.64l4.84,3.91-.28,2.08-4.67-3.77-2.73,3.38c.15.14.34.31.57.49.28.17.72.17,1.32.02.25-.1.51-.21.77-.32-.02-.03-.04-.07-.06-.12-.07-.11-.14-.19-.21-.25-.17-.14-.43-.12-.78.04-.03.02-.08.04-.14.07l-.2-1.36c.19-.12.33-.19.42-.23.32-.12.57-.11.75.03.1.08.17.18.22.32.15.42.21.9.18,1.46-.05.93.02,1.47.19,1.61.41.33.85.39,1.35.19.16-.07.37-.2.62-.4l.35,1.35c-.13.09-.25.18-.37.27-.62.3-1.14.38-1.56.25-.13-.04-.23-.1-.32-.16-.2-.16-.32-.4-.38-.72,0-.29,0-.58,0-.88-.98.45-1.71.48-2.2.08-.68-.55-.97-1.47-.89-2.78.02-.42.06-.67.12-.73l3.1-3.84Z"/><path class="cls-7" d="M102.67,83.53c-.06.05-.24.13-.54.23-1.12.4-2.02.43-2.7.09-1.01-.5-1.63-1.42-1.85-2.76-.07-.4-.09-.62-.07-.66l-1.12,2.29-.7-1.55,2.83-5.8,5.59,2.73.15,2.18c-.12.03-.53.06-1.23.08l-2.21.07c-.57.01-1.23.13-1.98.34-.3.14-.61.27-.93.4.09.12.18.24.27.36.27.24.58.44.9.6.38.19.74.27,1.06.27.6-.02,1.08-.12,1.45-.32.22-.11.42-.31.61-.58l.47,2.03ZM97.96,79.5l.77-.18c.36-.09.6-.15.74-.18.08-.02.5-.09,1.28-.22.16-.03.39-.07.69-.13l-2.52-1.23-.95,1.95Z"/><path class="cls-7" d="M13.5,34.17c.06-.09.22-.21.47-.35.26-.15.39-.21.41-.18l.28,1.6c-.06,0-.13.01-.22.03-.18.03-.3.08-.38.14-.06.04-.2.19-.41.46-.09.11-.01.24.22.38.28.16.55.24.82.22.44-.03.77-.06.99-.1.85-.15,1.62-.46,2.32-.94.14-.12.27-.25.41-.38l-4.13-2.45-2.35,3.96-.56-1.59,2.75-4.62,4.98,2.96-.2,3.16s-.01.05-.02.07c-.08.13-.36.33-.84.57-.6.31-1.21.53-1.83.66-.75.15-1.34.11-1.75-.14-.41-.25-.76-.69-1.05-1.34-.34-.75-.36-1.38-.05-1.9.06-.1.11-.17.15-.21Z"/><path class="cls-7" d="M18.24,27.12c.18-.09.32-.15.42-.18.33-.09.6-.05.8.12.35.29.39,1.06.14,2.32-.08.42-.04.7.12.83.33.27.69.36,1.08.27.32-.18.65-.36.97-.55l.19,1.52c.02.08-.18.23-.62.45-.49.24-.91.31-1.27.21-.11-.03-.22-.08-.32-.17-.24-.2-.38-.55-.42-1.04,0-.23,0-.46,0-.69-1,.47-1.74.5-2.22.11-.74-.61-.92-1.71-.54-3.3.14-.55.26-.84.37-.89.2-.02.39-.05.56-.08.43-.07.73-.22.9-.43.19-.23.28-.55.28-.98,0-.12-.01-.31-.05-.58.25-.17.42-.27.5-.32.38-.22.68-.33.9-.33.28.04.54.16.79.36l3.6,2.96-.33,2.1-4.41-3.63c-.17-.14-.48-.03-.94.31-.04.2-.08.4-.13.59-.15.47-.33.81-.53,1.01-.17.17-.47.33-.9.49-.15.06-.34.11-.57.17.03.17.06.32.1.43.1.31.22.53.38.67.04.03.07.06.1.06.25.13.7.11,1.36-.06.07-.02.38-.12.93-.3-.01-.02-.02-.04-.02-.07-.04-.05-.09-.1-.14-.15-.25-.2-.53-.2-.86,0-.05.03-.11.08-.19.13l-.05-1.38Z"/><path class="cls-7" d="M24.83,29.88c-.33-.33-.27-.72.18-1.18.47-.48.87-.55,1.21-.21.33.33.28.72-.18,1.19-.47.48-.87.54-1.21.21Z"/><path class="cls-7" d="M24.53,20.87c.19-.06.33-.09.45-.1.34-.03.6.06.77.25.29.34.2,1.11-.26,2.31-.16.4-.16.68-.03.84.28.33.62.48,1.02.45.35-.12.7-.24,1.05-.37l-.08,1.53c.01.09-.22.2-.69.33-.52.15-.95.15-1.29,0-.11-.05-.2-.12-.29-.22-.2-.24-.28-.61-.23-1.1.04-.23.08-.45.13-.68-1.06.28-1.8.19-2.2-.28-.63-.73-.62-1.85.04-3.34.23-.51.4-.78.52-.81.2.01.39.02.57.02.43,0,.75-.09.96-.26.22-.19.37-.5.44-.92.02-.11.04-.31.05-.58.28-.12.46-.19.55-.23.41-.15.73-.2.94-.16.27.08.51.25.71.49l3.03,3.54-.69,2.01-3.72-4.34c-.14-.16-.46-.11-.98.15-.08.19-.15.38-.23.56-.23.44-.46.74-.7.9-.2.14-.52.25-.97.33-.16.03-.35.05-.59.07,0,.18,0,.33.02.44.04.32.13.57.26.72.03.04.06.07.08.08.22.17.67.23,1.35.18.07,0,.39-.05.97-.13-.01-.02-.02-.05-.01-.07-.03-.06-.07-.12-.11-.17-.21-.24-.49-.29-.84-.15-.06.02-.13.06-.21.1l.19-1.37Z"/><path class="cls-7" d="M31.49,15.43l-2.79,1.72.49-1.82,3.22-1.98,3.22,5.24-1.02,1.89-3.1-5.05Z"/><path class="cls-7" d="M34.94,13.52l.7-1.46c.22.02.44.03.66.05.47.09.75.26.86.5l.03.07c.08.28,0,.9-.21,1.88-.1.43-.09.76.03,1.01.03.06.05.12.09.17.26.41.68.68,1.24.83.75.2,1.3.22,1.67.06.1-.03.25-.19.45-.48.2-.29.29-.46.26-.51l-1.75-3.88,1.25-1.76,2.02,4.49-.99.75c.1-.02.23-.04.4-.07.41-.06.79,0,1.14.16.18.09.27.15.27.17l-.69,1.45c-.65-.54-1.24-.69-1.78-.45-.31.14-.54.46-.68.97-.12.42-.18.65-.18.67-.05.02-.3.03-.73.02-1.45-.03-2.34-.4-2.66-1.12-.13-.3-.15-.68-.03-1.14.25-.99.34-1.59.26-1.79-.01-.03-.03-.07-.04-.11-.03-.03-.03-.05-.03-.06-.14-.31-.44-.47-.9-.49-.15,0-.36.02-.65.06Z"/><path class="cls-7" d="M37.34,10.09c-.17-.07-.28-.15-.31-.24-.01-.03,0-.08.02-.13l1.04-1.53c.14-.2.47-.39,1-.57.07-.03.15-.05.25-.08.18-.06.41-.09.69-.07.32.02.5.09.54.21.02.06.01.12-.03.18l-1,1.73c-.11.18-.41.36-.89.53-.17.06-.31.1-.43.12-.24.05-.54,0-.89-.14ZM37.8,9.02c.05.15.13.24.24.27.2.06.48.06.85,0,.11-.02.2-.04.29-.07.25-.09.44-.23.55-.41.03-.06.06-.14.08-.25,0-.04,0-.07,0-.09-.07-.2-.31-.25-.73-.15-.22.06-.36.1-.42.12-.35.12-.61.27-.77.44-.02.04-.04.09-.07.13Z"/><path class="cls-7" d="M59.08,7.41c.1.01.28.09.53.25.25.16.37.25.35.28l-1.28,1s-.07-.11-.13-.18c-.11-.14-.21-.23-.31-.27-.06-.04-.26-.08-.6-.14-.14-.02-.21.1-.23.37-.01.32.05.59.2.83.23.37.42.65.55.82.53.67,1.17,1.21,1.92,1.61.17.06.34.12.52.18l.22-4.8-4.6-.21,1.14-1.24,5.37.25-.27,5.79-2.88,1.31s-.05.02-.08.01c-.15,0-.46-.16-.9-.47-.55-.38-1.04-.82-1.44-1.3-.49-.59-.72-1.13-.7-1.61.02-.48.25-1,.69-1.56.5-.65,1.05-.97,1.65-.94.12,0,.2.02.26.03Z"/><path class="cls-7" d="M60.85,13.5c.05.02.12.04.2.06.47.14.78.34.94.6.08.12.11.2.1.26l-.14,1.09-1.77.69.18-1.4c.02-.11-.01-.22-.08-.34-.07-.08-.23-.14-.46-.17-.11-.01-.2-.02-.28-.02l1.32-.78Z"/><path class="cls-7" d="M67.18,7.04c.2.17.34.31.43.43.27.35.36.69.28,1.02l-.03.1s-.05.08-.05.11c-.1.2-.41.48-.91.83-.47.33-.73.61-.79.83-.04.15-.04.32,0,.48.23.9.64,1.62,1.24,2.15.39.35.78.57,1.2.67.1.02.16.03.17.02l1.63-6.64,2.06-.6-1.82,7.4-3.22.68c-.13.03-.44-.12-.94-.43-1.48-.93-2.08-1.95-1.8-3.07.07-.3.28-.58.62-.83.75-.57,1.15-.96,1.21-1.18.01-.05.02-.1.02-.15.03-.23-.09-.47-.35-.7-.08-.07-.22-.17-.41-.29l1.45-.82Z"/><path class="cls-7" d="M74.26,10.57c-.15-.08-.26-.14-.33-.18l1.28-.55c.26.17.43.29.53.36.68.52.88,1.11.6,1.76l-.89,2.11c.05.07.25.26.59.57.34.31.7.72,1.07,1.24.1.14.2.27.29.4l1.55-3.67,2.11-.29-2.4,5.66-2.11.27c-.03-.38-.14-.93-.31-1.66-.11-.27-.34-.61-.69-1.02-.11-.12-.28-.3-.51-.54l-.51,1.2-2.14.26c.01-.09.03-.21.04-.37.05-.55.03-.99-.05-1.33-.04-.18-.14-.44-.31-.79-.07-.15-.15-.31-.23-.46.13-.05.24-.1.33-.12.24-.07.45-.12.63-.14.3-.03.56-.04.79-.01.02,0,.07,0,.17.02l.87-2.04c.11-.26-.01-.49-.36-.68ZM73.54,13.8s-.08-.07-.2-.12c-.22-.09-.39-.15-.52-.17-.01.02-.01.04-.01.06.1.08.2.24.32.49.04.07.09.2.15.36l.26-.62Z"/><path class="cls-7" d="M78.95,10.16c-.06-.18-.07-.31-.03-.39.02-.03.05-.06.11-.07l1.83-.26c.24-.03.61.09,1.09.36.06.04.14.08.22.13.17.09.34.24.52.46.2.25.27.43.21.54-.03.05-.08.09-.15.1l-1.95.42c-.21.04-.54-.06-1-.31-.16-.09-.28-.17-.38-.23-.2-.15-.36-.4-.49-.75ZM80.05,9.79c-.07.13-.09.26-.04.36.09.19.28.4.57.63.09.07.17.12.25.16.24.13.46.17.67.13.06-.01.14-.05.24-.1.03-.02.05-.05.07-.07.1-.19-.03-.4-.38-.64-.19-.12-.31-.2-.38-.24-.33-.18-.61-.27-.85-.28-.05.02-.09.03-.14.03Z"/><path class="cls-7" d="M87.33,25.84l3.82-3.53c.19-.18.28-.37.24-.56-.03-.14-.11-.33-.24-.58-.03-.06-.09-.17-.19-.32l1.66.08,3.78,4.09-4.52,4.17-2.05-.64,4.36-4.02-1.64-1.77.05.74-3.23,2.98-2.05-.64Z"/><path class="cls-7" d="M93.86,32.08c.02.1.07.23.15.38.02.04.06.12.12.23l-1.5-.48c-.18-.05-.3-.38-.36-.99-.05-.48.02-.78.19-.91l4.21-3.02,1.96.89-4.62,3.3c-.17.12-.22.32-.16.59Z"/><path class="cls-7" d="M94.89,33.82l1.6.59c-.58.5-.68,1.1-.29,1.8.22.4.47.63.75.67.2.03.41-.02.64-.14.56-.31,1-.87,1.31-1.67.52-1.33.57-2.59.17-3.79-.04-.11-.1-.29-.18-.53l1.71.43,2.67,4.82-1.76-.5-.79-1.43c0,.07-.05.26-.14.55-.34,1.11-.86,1.87-1.56,2.26-.25.14-.49.23-.71.28-.95.2-2.03-.15-3.22-1.05-.06-.06-.12-.12-.15-.18-.18-.32-.25-.77-.21-1.34.04-.54.09-.79.16-.76Z"/><path class="cls-7" d="M57.83,115.67C25.94,115.67,0,89.73,0,57.84S25.94,0,57.83,0s57.84,25.95,57.84,57.84-25.95,57.84-57.84,57.84ZM57.83,2.17C27.14,2.17,2.17,27.14,2.17,57.84s24.97,55.66,55.66,55.66,55.66-24.97,55.66-55.66S88.53,2.17,57.83,2.17Z"/><g><path class="cls-7" d="M9.54,58.83c-.72,0-1.31-.59-1.31-1.31s.59-1.31,1.31-1.31,1.31.59,1.31,1.31-.59,1.31-1.31,1.31ZM9.54,56.4c-.62,0-1.12.5-1.12,1.12s.5,1.12,1.12,1.12,1.12-.5,1.12-1.12-.5-1.12-1.12-1.12Z"/><path class="cls-7" d="M12.1,56c-.59-.41-1.34.16-1.34.16h-.02s-.02-.03-.04-.04c.62-.67-.08-2.01-.08-2.01-.41-.62-.95-2.1-.95-2.1-.09.57-1.2,2.15-1.2,2.15-.76,1.29-.07,1.93-.07,1.93.01,0,.03,0,.04-.01-.03.02-.05.04-.08.06-.19-.12-.87-.5-1.38-.14,0,0-1.34,1.36-1.88,1.54,0,0,.55.29,1.34.93,0,0,.97,1.11,1.82.37.01.01.02.02.03.03-.08.1-.54.78.16,1.96,0,0,1.1,1.58,1.2,2.15,0,0,.54-1.48.95-2.1,0,0,.81-1.36.19-2.03,0,0,0,0,0,0,.85.74,1.82-.37,1.82-.37.79-.64,1.34-.93,1.34-.93-.54-.18-1.88-1.54-1.88-1.54ZM9.54,59.17c-.91,0-1.64-.74-1.64-1.64s.74-1.64,1.64-1.64,1.64.74,1.64,1.64-.74,1.64-1.64,1.64Z"/></g><g><path class="cls-7" d="M105.6,58.83c-.72,0-1.31-.59-1.31-1.31s.59-1.31,1.31-1.31,1.31.59,1.31,1.31-.59,1.31-1.31,1.31ZM105.6,56.4c-.62,0-1.12.5-1.12,1.12s.5,1.12,1.12,1.12,1.12-.5,1.12-1.12-.5-1.12-1.12-1.12Z"/><path class="cls-7" d="M108.16,56c-.59-.41-1.34.16-1.34.16h-.02s-.02-.03-.04-.04c.62-.67-.08-2.01-.08-2.01-.41-.62-.95-2.1-.95-2.1-.1.57-1.2,2.15-1.2,2.15-.76,1.29-.07,1.93-.07,1.93.01,0,.03,0,.04-.01-.03.02-.05.04-.08.06-.19-.12-.87-.5-1.38-.14,0,0-1.34,1.36-1.88,1.54,0,0,.55.29,1.34.93,0,0,.97,1.11,1.82.37.01.01.02.02.03.03-.08.1-.54.78.16,1.96,0,0,1.1,1.58,1.2,2.15,0,0,.54-1.48.95-2.1,0,0,.81-1.36.19-2.03,0,0,0,0,0,0,.85.74,1.82-.37,1.82-.37.79-.64,1.34-.93,1.34-.93-.54-.18-1.88-1.54-1.88-1.54ZM105.6,59.17c-.91,0-1.64-.74-1.64-1.64s.74-1.64,1.64-1.64,1.64.74,1.64,1.64-.74,1.64-1.64,1.64Z"/></g><path class="cls-7" d="M57.29,97.44c-22,0-39.89-17.89-39.89-39.89S35.29,17.66,57.29,17.66s39.89,17.89,39.89,39.89-17.89,39.89-39.89,39.89ZM57.29,19.49c-20.99,0-38.06,17.07-38.06,38.06s17.07,38.06,38.06,38.06,38.06-17.07,38.06-38.06-17.07-38.06-38.06-38.06Z"/><g><path class="cls-1" d="M48.33,79.92s-2,.55-2.24,3.48c0,0-.05,2.94,2.38,4.65,0,0,1.68,1.25,3,1.1,0,0,1.41.29,2.64-2.74,0,0,.69-2.19.67-4.05l.41.48s-.12,4.19-1.95,5.98c0,0-.98,1.81-3.84.33,0,0-3.48-1.36-3.6-5.65,0,0,.02-3.19,2.6-3.95,0,0,.05.24-.07.38Z"/><path class="cls-1" d="M66.65,70.84s-3.5.2-4.38,3.66c0,0-.46,1.48.29,3.52,0,0,.66,2.11.05,3.39,0,0,2.02-.54,2.27-2.82,0,0,.27-.91-.09-3.65,0,0-.05-2.3,2.05-3.07l-.2-1.04Z"/><path class="cls-1" d="M72.71,73.3l-.7-1.04s1.1-1.01.85-2.56c0,0-.16-1.14-1.11-1.11,0,0-1.38.11-.8,1.82,0,0-2.02-.29-2.14-2.43,0,0,.05-1.25.82-1.68,0,0,.88-.66,1.55-.21,0,0-.39-1.52,1.54-3.41,0,0,1.23-1.52,2.54-1.79,0,0-.7.39-1.05,1.45,0,0-.27.64-.07,2.23,0,0,.2,1.57-.73,2.32,0,0,.13.23.66-.48,0,0,.36-.57.82-.43,0,0-.61.07-.39,1.5,0,0,.52,1.64-.05,3.27,0,0-.66,1.47-1.73,2.54Z"/><path class="cls-1" d="M70.99,60.6s1.18-3.53-.57-7.17c0,0,.17,1.45-.55,2.52,0,0-1,1.38-1.02,2.03,0,0,0-.64-.76-1.1,0,0,.29.67-.24,1,0,0-.74,1.03-.71,1.69,0,0-.02.93.43,1.36,0,0,.05-1,.76-.98,0,0,.81.07.76,1.33,0,0-.26,1.52-1,2.64,0,0-.12-1.02-.91-1.83,0,0-1-.71-1.86-.29,0,0-.01-2.26.52-3.95,0,0,.6-1.83,2.02-1.93,0,0,.71.12.93.81,0,0,.01-.42.48-1.26,0,0,1.27-2.02-.64-6.81,0,0,.17,1.66-.41,2.75,0,0-.67,1.31-.33,1.93,0,0,.24.64-.36,1,0,0,.12-.57-.38-1.24,0,0,.14.62-.09.79,0,0-1,1.05-1.19,1.69,0,0-1.43-1.83-5.65-2.33l.21.67s1.72.14,2.91,1.07c0,0,.43.72.19,1.41,0,0,1.02.45,1.17,1.64,0,0,.07,1.69.07,3.07,0,0,.14,2.62-.86,3.69,0,0-.21.24-.52.33,0,0-.43.14-.29.48,0,0,.12.5.62.31,0,0,.83-.38,1.36-1.91,0,0,.31-.95.26-1.67,0,0,.88-.55,1.57.45,0,0,.57,1.03.38,2.22,0,0-.26,1.81-.48,2.88,0,0-.54,2.14,0,4.19,0,0,.4,1.91,2.26,2.32,0,0,.74.26,1.41-.1,0,0-.02-.46-.45-.83,0,0-2.18.45-2.54-1.91,0,0-.73-2.81.98-5.93,0,0,1.88-2.97,2.5-5.05ZM65.07,57.07s-.27-.73-.86-1.14c0,0,.07-.54-.11-.88,0,0,.88.39,1.38,1.07,0,0-.41.63-.41.95Z"/><path class="cls-1" d="M41.57,73.17l.88-1.02s-1.05-.89-.8-2.45c0,0,.16-1.14,1.11-1.11,0,0,1.38.11.8,1.82,0,0,2.02-.29,2.14-2.43,0,0-.05-1.25-.82-1.68,0,0-.88-.66-1.55-.21,0,0,.39-1.52-1.54-3.41,0,0-1.23-1.52-2.54-1.79,0,0,.7.39,1.05,1.45,0,0,.27.64.07,2.23,0,0-.2,1.57.73,2.32,0,0-.13.23-.66-.48,0,0-.36-.57-.82-.43,0,0,.61.07.39,1.5,0,0-.52,1.64.05,3.27,0,0,.43,1.34,1.5,2.41Z"/><path class="cls-1" d="M46.02,65.65c1.72,3.13.98,5.93.98,5.93-.36,2.36-2.48,1.97-2.48,1.97-.43.37-.5.77-.5.77.67.36,1.41.1,1.41.1,1.86-.41,2.26-2.32,2.26-2.32.55-2.05,0-4.19,0-4.19-.21-1.07-.48-2.88-.48-2.88-.19-1.19.38-2.22.38-2.22.69-1,1.57-.45,1.57-.45-.05.71.26,1.67.26,1.67.53,1.53,1.36,1.91,1.36,1.91.5.19.62-.31.62-.31.14-.33-.29-.48-.29-.48-.31-.1-.52-.33-.52-.33-1-1.07-.86-3.69-.86-3.69,0-1.38.07-3.07.07-3.07.14-1.19,1.17-1.64,1.17-1.64-.24-.69.19-1.41.19-1.41,1.19-.93,3.02-1.07,3.02-1.07l.21-.67c-4.22.5-5.76,2.33-5.76,2.33-.19-.64-1.19-1.69-1.19-1.69-.24-.17-.09-.79-.09-.79-.5.67-.38,1.24-.38,1.24-.6-.36-.36-1-.36-1,.33-.62-.33-1.93-.33-1.93-.57-1.1-.41-2.75-.41-2.75-1.91,4.79-.64,6.81-.64,6.81.46.84.48,1.26.48,1.26.21-.69.93-.81.93-.81,1.43.1,2.02,1.93,2.02,1.93.54,1.7.52,3.95.52,3.95-.86-.43-1.86.29-1.86.29-.79.81-.91,1.83-.91,1.83-.74-1.12-1-2.64-1-2.64-.05-1.26.76-1.33.76-1.33.71-.02.76.98.76.98.45-.43.43-1.36.43-1.36.02-.67-.71-1.69-.71-1.69-.53-.33-.24-1-.24-1-.76.45-.76,1.1-.76,1.1-.02-.64-1.02-2.03-1.02-2.03-.71-1.07-.55-2.52-.55-2.52-1.75,3.64-.57,7.17-.57,7.17.63,2.09,2.5,5.05,2.5,5.05ZM49.02,56.13c.5-.68,1.38-1.07,1.38-1.07-.18.34-.11.88-.11.88-.59.41-.86,1.14-.86,1.14,0-.32-.41-.95-.41-.95Z"/><path class="cls-1" d="M58,21.72c0,.37-.3.67-.67.67s-.67-.3-.67-.67.3-.67.67-.67.67.3.67.67Z"/><path class="cls-1" d="M57.34,22.67s.79,4.12,1,5.55c0,0-.69.62-1.03,1,0,0-.67-.74-1.12-.93,0,0,.38-2.12,1.14-5.62Z"/><path class="cls-1" d="M46.33,82.04s2.05.03,2.81-2.11c0,0,.34-1.09-.48-2.09,0,0-.82-.84-1.91-.54,0,0,.73-1.23,2-.98,0,0,1.5.25,1.97,2.18,0,0,.34,1.98-.73,3.13,0,0-1.45,2.09-3.93,1.73l.29-1.32Z"/><path class="cls-1" d="M66.98,72.56s-1.25.55-1.27,2.54c0,0,.11,1.14.21,1.98,0,0,.24,1.81-.5,2.95,0,0-.7,1.16-2.05,1.88,0,0-1.32.64-2.09.8,0,0,.29-.64.48-1.23,0,0,.45-1.14-.05-2.89,0,0-.2-.7-.38-1.61,0,0-.63-2.02.52-4.02,0,0,1.34-2.68,4.72-2.84v.38s-2.37,0-4.18,2.27c0,0-.95,1.52-.8,3.18,0,0,.25,1.47.46,2.45,0,0,.61,2.64-.18,3.7,0,0,1.66-.25,3.06-2.04,0,0,.86-1.16.64-2.84,0,0-.27-1.5-.21-2.47,0,0,.23-1.93,1.57-2.54l.05.35Z"/><path class="cls-1" d="M46.49,81.66s1.57-.09,2.16-1.72c0,0,.46-1.43-.73-2.11,0,0-.95-.38-1.68-.09,0,0,.12-1.66,2.02-1.89,0,0,2.09-.02,2.81,2.07,0,0,.54,1.5-.21,3.22,0,0-1.38,2.84-4.79,2.56l.04.32s2.69.42,4.48-1.81c0,0,1.68-1.73.79-4.56,0,0-.98-2.23-3.14-2.05,0,0-2.32.02-2.34,2.66,0,0,1.38-.66,2.09.09,0,0,.95.85.04,2.13,0,0-.84.88-1.41.86l-.11.32Z"/><path class="cls-1" d="M44.92,80.97s-1.58-.97-1.85-3.54c0,0-.25-2.66,2.59-4.32,0,0,2.75-1.38,5.13.14,0,0,2.05,1.16,3.22,3.52,0,0,.54.86.79,3.04l.45.43s-.05-2.66-1.75-4.84c0,0-1.68-2.68-4.63-3.2,0,0-2.04-.32-3.72.71,0,0-2.02,1.11-2.41,3.72,0,0-.45,2.66,2.01,4.68l.17-.33Z"/><path class="cls-1" d="M48.45,79.35s-2.22.28-2.83,3.17c0,0-.48,2.1.81,4.33,0,0,1.38,2.53,4.22,3.22,0,0,1.67.36,2.55-.6,0,0,1.69-1.19,2.24-4.48,0,0,.29-1.29.21-1.76,0,0,1.62,2.14,1.98,3.07,0,0-.21,2.24-1.98,4.72,0,0-1.5,2.19-3.86,1.4,0,0-3.24-.79-5.79-4.53,0,0-1.42-2.16-1.19-4.41,0,0-.07-2.19,1.67-3.72,0,0,1.12-.93,1.91-.95l.07.52Z"/><path class="cls-1" d="M51.48,78.18s1.93.24,4,2.12c0,0,2.36,2.17,3.65,3.6,0,0,2.17,2.48,2.74,3.03,0,0,.79.83,1.19.83,0,0,.38.24,2.72-2,0,0,2.21-2.05,3.55-5.07,0,0,1.36-2.53,1.41-4.69,0,0,.1-2.23-1.19-3,0,0-.88-.66-1.86-.66l-.14-.24s.86-.27,2.34.8c0,0,1.2,1.04,1.16,2.86,0,0,.11,2.09-1.59,5.47,0,0-1.43,2.72-2.79,4.16,0,0-2.52,2.93-3.6,2.85,0,0-.32.04-.95-.41,0,0-.28-.32-2.55-2.98,0,0-1.61-1.98-3.02-3.29,0,0-2.32-2.02-3.02-2.29,0,0-1.45-.88-2.07-.79v-.3Z"/><path class="cls-1" d="M67.35,70.8s2.34-.07,3.77,1.68c0,0,1.43,1.45,1.45,4.18,0,0,.04,2.38-1.05,5.02,0,0-1.16,2.98-2.57,4.66,0,0-2.22,2.91-3.5,3.98,0,0-1.59,1.41-2.32,1.7,0,0-.8.5-1.95-.77,0,0-.55-.52-1.27-2.27,0,0-1.41-2.82-2.98-5.18,0,0-2.63-3.45-5.38-4.09l.09-.88s1.97.29,4.25,2.57c0,0,1.8,1.57,3.23,3.5,0,0,1.5,1.98,2.11,2.7,0,0,.88,1.07,1.61,1.09,0,0,.95.27,2.75-1.5,0,0,2.32-2.07,3.7-4.63,0,0,1.5-2.25,2.04-5.13,0,0,.64-2.32-.54-4.09,0,0-.77-1.43-3.31-1.64l-.13-.91Z"/><path class="cls-1" d="M67.23,70.1s2.02-.11,3.86,1.38c0,0,1.52,1.26,1.88,2.84,0,0,.68,1.57.23,4.34,0,0-.45,3.17-2.26,6.05,0,0-1.69,2.86-2.79,4.1,0,0-1.6,1.88-3.17,3.1,0,0-1.39,1.26-2.29,1.16,0,0-1.55.18-2.93-2.25,0,0-.96-1.97-1.5-3.11,0,0-1.27-2.54-2.79-4.47,0,0-1.34-1.98-4-2.91v-.32s1.95.5,3.79,2.45c1.76,1.98,1.57,2.13,2.54,3.65,0,0,1,1.73,1.45,2.8,0,0,.55,1.07.95,1.77,0,0,.75,1.34,1.66,1.75,0,0,.77.52,1.84-.07,0,0,1.57-.93,3.81-3.38,0,0,1.55-1.71,3.34-4.79,0,0,1.21-2.16,1.84-4.97,0,0,.82-2.68-.2-5.2,0,0-.68-1.75-2.09-2.66,0,0-1.57-.96-3.16-.93v-.33Z"/><path class="cls-1" d="M48.23,78.54s-2.17.53-3.12,2.5c0,0-1.1,1.88-.38,4.69,0,0,.79,2.55,2.76,4.46,0,0,2.54,2.56,5.53,2.72,0,0,1.58-.1,2.6-1.26,0,0,1.41-1.43,2.33-4.5l.2.29s-.59,2.11-2.29,4.27c0,0-1,1.5-2.97,1.45,0,0-1.55.13-3.77-1.39,0,0-2.81-1.55-4.16-4.79,0,0-.93-1.75-.73-3.65,0,0,.16-2.57,1.93-3.93,0,0,.89-.8,1.98-1.04l.08.18Z"/><path class="cls-1" d="M55.75,80.61s.14-2.71-2.22-5.95c0,0-1.18-1.69-3.52-2.57,0,0-1.98-.69-3.79-.14,0,0-1.93.39-3.29,2.59,0,0-1.04,1.86-.52,3.93,0,0,.45,2.04,2.22,3.15l-.29,1.18s-2.09-.83-2.84-3.34c0,0-1.01-2.66.16-5.11,0,0,1.66-3.4,5.16-3.59,0,0,2.21-.73,5.61,1.7,0,0,2.27,1.51,3.68,3.98,0,0,2.14,3.73,1.84,6.31l-2.22-2.13Z"/><path class="cls-1" d="M44.37,83.11s-2.41-.71-3.38-4.05c0,0-.84-2.17.16-4.67,0,0,1.1-2.91,4.03-3.69,0,0,3.06-1.03,5.51.28,0,0,2.68,1.21,4.84,3.84,0,0,1.44,1.64,2.61,4.95,0,0,.6,2.26.48,3.81l.35.37s.41-4.15-2.67-8.48c0,0-1.93-3.43-6.26-5.03,0,0-2.28-1-5.34,0,0,0-3.65,1.14-4.36,5.41,0,0-.55,2.72,1.14,5.29,0,0,1.23,2.01,2.82,2.3l.05-.32Z"/><path class="cls-1" d="M57.28,30.25s.06-.57,1.1-1.14c0,0,.49-.23.69-.61,0,0,.29,1.5-.53,2.25,0,0-.77.82-1.22,1.72l-.04-2.22Z"/><path class="cls-1" d="M57.3,30.25s-.05-.57-1.08-1.14c0,0-.49-.23-.69-.61,0,0-.29,1.5.53,2.25,0,0,.81.82,1.26,1.72l-.02-2.22Z"/><path class="cls-1" d="M54.67,32.45h2s-.45-1.02-1.5-1.86c0,0,.32,1.02-.5,1.86Z"/><path class="cls-1" d="M59.98,32.45h-2s.45-1.02,1.5-1.86c0,0-.32,1.02.5,1.86Z"/><path class="cls-2" d="M60.42,32.99h-6.24c-.45,0-.81.36-.81.81s.36.81.81.81h6.24c.45,0,.81-.36.81-.81s-.36-.81-.81-.81ZM54.28,34.17s-.84-.39.04-.86l1.18.04s-.41.54.09.82h-1.3ZM58.17,34.18h-1.73c-.24,0-.44-.2-.44-.44s.2-.44.44-.44h1.73c.24,0,.44.2.44.44s-.2.44-.44.44ZM60.3,34.17h-1.3c.5-.29.09-.82.09-.82l1.18-.04c.88.46.04.86.04.86Z"/><path class="cls-1" d="M54.1,34.92h2.73s-1.04,1.23-1.47,2c0,0-.12-.55-.38-.89,0,0-.82-.93-.89-1.11Z"/><path class="cls-1" d="M60.32,34.97l-2.73-.1s.99,1.27,1.39,2.05c0,0,.15-.55.41-.88,0,0,.86-.9.93-1.07Z"/><g><path class="cls-1" d="M56.4,68.57h1.51s.13.26-.1.32v.59s-.11.21-.22.21h-.93s-.16-.1-.14-.26v-.59s-.24-.05-.11-.27Z"/><path class="cls-1" d="M56.67,69.87h.9l.03.24s.3.18.13.66c0,0-.51,1.14-.59,1.24,0,0-.55-.98-.67-1.53,0,0-.02-.24.18-.39l.03-.22Z"/><rect class="cls-1" x="56.56" y="64.68" width="1.25" height=".8"/><path class="cls-1" d="M54.35,61.7s-.55.74-.32,2.31c0,0,.19,1.45,1.86,2.25,0,0,1.99.87,3.5-.55,0,0,1.93-1.61.77-3.89,0,0,.67-.87.29-2.57,0,0,.45.45.45,1.28,0,0,.26-.39.16-.87,0,0,.61.42.58,1.32,0,0-.03.55-.9,1.25,0,0-.18.67.28.46,0,0,1.09-.79,1.06-1.59,0,0,.77,1.04.39,1.8,0,0-.36.75-.6.89,0,0,.46.02.63-.46,0,0,.31,1.35-1.37,1.56,0,0-.53.12-.75.02,0,0-.31.31-.02.41,0,0,.87.41,1.86-.26,0,0-.29,1.15-1.16,1.66,0,0-.41.12-.8.05,0,0,.22.34.67.24,0,0-.51.89-1.4.58,0,0-.77-.31-1.18-.99,0,0-.48-.1-.39.38,0,0,.26.87,1.47.99,0,0-.77.67-1.73.46,0,0-.53-.17-.87-.7,0,0,.02.48.24.72,0,0-.7.12-1.35-1.04,0,0-.17-.43,0-.87,0,0-.1-.48-.48-.12,0,0-.41.58.24,1.71,0,0-1.95-.36-1.66-1.81,0,0-.29.29-.29.72,0,0-.8-.82-.34-1.88,0,0,.34-.7.68-.77,0,0,.02-.46-.27-.39,0,0-1.08.53-1.13,1.73,0,0-1.13-1.59.05-2.77,0,0-.53.12-.67.41,0,0,.02-1.61,1.11-1.71,0,0,.65-.02.84.29,0,0,.34-.26.05-.53,0,0-.77-.7-1.59.02,0,0,.24-1.4,1.44-1.64,0,0,.41.15.36.67,0,0-.12.71.29,1.16Z"/><path class="cls-1" d="M54.44,62.15s-.38,1.01-.07,1.93c0,0,.36,1.52,2.14,2.07,0,0,1.78.31,2.82-.91,0,0,1.23-1.04.67-2.94l-.41.36s.18,1.1-.43,1.95c0,0-.72,1.11-1.93,1.08,0,0-1.42.05-2.26-1.42,0,0-.34-.96-.14-1.66l-.39-.46Z"/><path class="cls-1" d="M56.68,64.43h1.03s.18-.1.19-.3v-.42s.06-.37.69-.67c0,0,.85-.4,1.14-.79,0,0,.41-.3.48-1.12,0,0,.26-.19.05-.26h-1.01s.1.72-.7.87c0,0-.72-.02-.82-.55v-.77s.09.02.17-.06c0,0,.1-.19-.05-.27h-1.19s-.16.06-.13.15c0,0-.03.16.16.21v.79s-.11.51-.79.55c0,0-.64-.06-.63-.87h-1.11s-.1.19.1.22c0,0,.1,1.04,1.09,1.64,0,0,.27.13.55.22,0,0,.6.15.63.74l.02.53s0,.1.12.18Z"/><path class="cls-1" d="M53.99,59.77l.03-.83s-.51.38-.77.74c0,0,.58-.03.74.1Z"/><path class="cls-1" d="M56.43,59.64s-.42-.64-1.16-1.12c0,0,.51-.35,1.03-.35,0,0,.26.64.13,1.48Z"/><path class="cls-1" d="M59.1,60.64s-.45-.61-1.06-.77l-.1-1.86s1.28.51,1.16,2.63Z"/><path class="cls-1" d="M59.26,58.97s.29-.48-.35-.67l.35.67Z"/><path class="cls-1" d="M55.37,60.45s.51-.42,1.03-.45c0,0-.7-.61-1.09-.77l.06,1.22Z"/><path class="cls-1" d="M55.6,61.34s.45-.39.9-.55c0,0,.06-.22-.1-.42,0,0-.74.27-.91.58,0,0-.08.32.11.39Z"/><path class="cls-1" d="M58.13,60.4s.58.26.82.61c0,0,.19.37-.24.39,0,0-.37-.42-.64-.53,0,0-.06-.32.06-.46Z"/><path class="cls-1" d="M56.63,59.71h1.16s.16-.1,0-.29v-.74s.24-.26.02-.42h-1.12s-.22.26.05.4l.02.72s-.21.18-.11.32Z"/><path class="cls-1" d="M54.19,60.54h1v-.83h-1.04s-.1.19.14.21v.42s-.18.13-.1.21Z"/><path class="cls-1" d="M60.31,60.54h-1v-.83h1.04s.1.19-.15.21v.42s.18.13.1.21Z"/><path class="cls-1" d="M59.47,59.4h.83s.09-1.33.23-2.81c0,0,.23-1.19-.14-2.01,0,0-.39-1.04-.41-1.42,0,0-.17.77-.41,1.23,0,0-.42.97-.23,2.18,0,0,.13,2.39.13,2.83Z"/><path class="cls-1" d="M55.17,59.4h-.83s-.09-1.33-.23-2.81c0,0-.22-1.19.14-2.01,0,0,.39-1.04.41-1.42,0,0,.17.77.41,1.23,0,0,.42.97.23,2.18,0,0-.13,2.39-.13,2.83Z"/><path class="cls-1" d="M56.72,57.97h1.04s.3-3.47.34-3.95c0,0,.22-1.43.03-2.25,0,0-.55-1.69-.87-2.48,0,0-.54,1.54-.81,2.48,0,0-.25.54.06,2.23,0,0,.3,3.55.21,3.97Z"/></g><path class="cls-1" d="M55.55,55.93s.71.21,1,.19l.02.64s-.64.05-1.07-.12l.05-.71Z"/><path class="cls-1" d="M58.03,56.14l-.05.62s.98.02,1.24-.12c0,0-.1-.5-.05-.71,0,0-.57.29-1.14.21Z"/><path class="cls-1" d="M60.73,55.5s0,.54-.05.77c0,0,1.82-.66,2.64-1.45l-.61-.45s-.91.84-1.98,1.13Z"/><path class="cls-1" d="M51.69,54.52s1.16.66,2.14.93l-.04.7s-1.77-.41-2.64-1.25l.54-.38Z"/><path class="cls-1" d="M53.21,38.2s4.56-.25,8.13,0c0,0-1.29-1.59-.95-2.38,0,0-.98,1.11-1.48,2.16,0,0-1.34-1.7-1.61-2.68,0,0-.64,1.61-1.52,2.64,0,0-.25-.57-1.64-1.98,0,0,.11,1.36-.93,2.23Z"/><path class="cls-1" d="M62.66,39.51c-.27-.88-1.13-.91-1.13-.91-3.14-.23-8.84,0-8.84,0-.84.27-.91,1.04-.91,1.04.2.71,1.27.88,1.27.88,3.23-.25,8.67,0,8.67,0,1.09-.21.95-1,.95-1ZM52.87,39.99s-.45-.16-.45-.51c0,0,.05-.34.5-.49,0,0,.52-.04,1.72-.04,0,0-.63.49.09,1.07l-1.86-.02ZM59.01,39.95h-3.59c-1.09-.54,0-1.04,0-1.04l3.59-.04c1.18.56,0,1.08,0,1.08ZM61.68,39.99l-1.86.02c.71-.57.09-1.07.09-1.07,1.2,0,1.72.04,1.72.04.45.16.5.49.5.49,0,.36-.45.51-.45.51Z"/><path class="cls-1" d="M63.24,42.9s-7.39-1.14-11.75,0c0,0,1.19-1.5,1.24-2.41,0,0,1.04.91,1.45,1.88,0,0,1.38-1.5,1.54-1.89,0,0,1.18,1.48,1.57,1.84,0,0,.71-.5,1.72-1.86,0,0,1.3,1.61,1.54,2,0,0,.63-1.29,1.25-1.86,0,0,.13.69,1.44,2.3Z"/><path class="cls-1" d="M49.28,45.6s6.18-1.79,16.67,0c0,0-1.47-1.39-1.7-2.66,0,0-.98,1.11-1.18,2.11,0,0-1.13-1.91-1.14-2.2,0,0-1.41,1.89-1.5,1.97,0,0-1.47-1.93-1.64-2.31,0,0-1.05,1.75-1.57,2.2,0,0-1.34-1.75-1.5-2.2,0,0-.95,1.75-1.18,2.22,0,0-1.11-1.63-1.54-2.04,0,0-.66,1.84-1.04,2.29,0,0-.55-1.21-1.45-2.13,0,0,0,1.27-1.23,2.75Z"/><path class="cls-1" d="M46.58,48.71s8.92-3.97,21.46,0c0,0-1.41-2.14-1.29-3,0,0-1.17,1.62-1.26,2.17,0,0-1-1.95-1.12-2.41,0,0-.95,1.43-1.33,1.86,0,0-.88-1.41-1.14-2.19,0,0-1.36,1.67-1.45,1.88,0,0-1.33-1.88-1.5-2.12,0,0-1.19,1.38-1.74,1.95,0,0-.95-1.62-1.33-1.98,0,0-.98,1.69-1.22,2,0,0-1.05-1.4-1.5-1.81,0,0-.9,1.62-1.26,2.12,0,0-1.31-1.55-1.53-1.72,0,0-.79,1.83-1.07,2.26,0,0-.52-1.33-1.38-2.05,0,0-.02,1.5-1.32,3.03Z"/><path class="cls-1" d="M46.69,49.21s8.41-4.22,21.18,0c0,0,.9,1.69-3.91,5.24l-.71-.38s1.76-1.1,2.36-1.86c0,0-4.07-1.36-7.65-1.31l-.12-.36s1.21,0,1.62-.83c0,0,.5,1.17,1.83,1.29,0,0,1.31.17,2.17-1,0,0,.12,1.07,1.33,1.6,0,0,1.31.48,1.81-.64,0,0,.38-.86-.52-1.45,0,0-1.21-.69-2.64.33,0,0-.24-1.25-1.93-1.45,0,0-1.47,0-2.02,1.07,0,0-.1-.57-.88-1.02,0,0-1.36-.55-2.55.05,0,0-.52.24-.79.83,0,0-.31-.6-1.24-.81,0,0-1.33-.24-2.26.55,0,0-.52.5-.69.9,0,0-.5-.57-1.05-.79,0,0-1.45-.33-2.29.55,0,0-.9.98.31,1.76,0,0,.81.38,2.33-.41,0,0,.67-.38.71-.93,0,0,.29.62,1.57.6,0,0,1.29.1,2.1-.6,0,0,.38-.33.52-.55,0,0,.57.81,1.38,1l-.12.26s-4.36-.19-8.05,1.29c0,0,1.67,1.57,2.62,2.02l-.76.43s-4.45-2.88-3.67-5.38Z"/><path class="cls-1" d="M56.26,53.75s-.82.04-1.22.07l-.21-.59s.8-.18,1.36-.09l.07.61Z"/><path class="cls-1" d="M58.41,53.2l-.09.59s.79-.04,1.23.05l.23-.63s-.75-.09-1.38-.02Z"/></g><path class="cls-7" d="M57.29,98.64c-22.67,0-41.11-18.44-41.11-41.11S34.62,16.41,57.29,16.41s41.11,18.44,41.11,41.11-18.44,41.11-41.11,41.11ZM57.29,16.87c-22.42,0-40.65,18.24-40.65,40.65s18.24,40.65,40.65,40.65,40.65-18.24,40.65-40.65-18.24-40.65-40.65-40.65Z"/><path class="cls-7" d="M57.86,112.73c-30.24,0-54.84-24.6-54.84-54.85S27.62,3.04,57.86,3.04s54.85,24.6,54.85,54.85-24.6,54.85-54.85,54.85ZM57.86,3.47C27.86,3.47,3.45,27.88,3.45,57.88s24.41,54.41,54.41,54.41,54.41-24.41,54.41-54.41S87.86,3.47,57.86,3.47Z"/></g></g></g></g><script xmlns=""/></svg>